<svg width="538" height="515" viewBox="0 0 538 515" fill="none" xmlns="http://www.w3.org/2000/svg">
<circle cx="257.5" cy="257.5" r="257.5" fill="url(#paint0_linear_106_114)"/>
<circle cx="280.5" cy="257.5" r="253" fill="url(#paint1_linear_106_114)" stroke="white" stroke-width="9"/>
<g clip-path="url(#clip0_106_114)">
<path d="M385.901 140.535L397.464 152.098C409.817 164.452 409.817 184.464 397.464 196.818L369.594 224.687L313.262 168.405L341.132 140.535C353.485 128.182 373.498 128.182 385.852 140.535H385.901ZM176.188 305.529L302.095 179.572L358.427 235.904L232.47 361.811C229.16 365.122 225.009 367.543 220.512 368.828L169.121 383.504C164.971 384.69 160.523 383.554 157.46 380.49C154.396 377.426 153.26 372.979 154.446 368.828L169.121 317.438C170.406 312.891 172.828 308.79 176.138 305.479L176.188 305.529ZM277.239 182.092L205.095 254.237L161.907 211C152.667 201.759 152.667 186.737 161.907 177.447L200.499 138.904C209.74 129.664 224.762 129.664 234.052 138.904L243.836 148.688C243.687 148.837 243.49 148.985 243.341 149.133L211.716 180.758C208.653 183.822 208.653 188.862 211.716 191.926C214.78 194.989 219.82 194.989 222.884 191.926L254.509 160.301C254.657 160.153 254.805 159.955 254.954 159.807L277.239 182.092ZM355.907 260.76L378.192 283.045C378.044 283.194 377.846 283.342 377.698 283.49L346.073 315.115C343.01 318.179 343.01 323.219 346.073 326.283C349.137 329.346 354.177 329.346 357.241 326.283L388.866 294.658C389.014 294.509 389.162 294.312 389.311 294.163L399.095 303.997C408.335 313.237 408.335 328.259 399.095 337.549L360.502 376.092C351.262 385.332 336.24 385.332 326.95 376.092L283.762 332.904L355.907 260.76Z" fill="white"/>
</g>
<defs>
<linearGradient id="paint0_linear_106_114" x1="257.5" y1="0" x2="257.5" y2="515" gradientUnits="userSpaceOnUse">
<stop stop-color="#111728"/>
<stop offset="1" stop-color="#2A3D6F"/>
</linearGradient>
<linearGradient id="paint1_linear_106_114" x1="116.5" y1="174.5" x2="483" y2="388" gradientUnits="userSpaceOnUse">
<stop stop-color="#111728"/>
<stop offset="1" stop-color="#2A3D6F"/>
</linearGradient>
<clipPath id="clip0_106_114">
<rect width="253" height="253" fill="white" transform="translate(154 131)"/>
</clipPath>
</defs>
</svg>
