<svg width="512" height="512" viewBox="0 0 512 512" fill="none" xmlns="http://www.w3.org/2000/svg">
<path d="M417.147 282.179L411.387 273.71L437.75 255.79L410.204 239.959L415.309 231.081L457.032 255.058L417.147 282.179Z" fill="white"/>
<path d="M64.6094 250.373H72.2894V260.613H64.6094V250.373Z" fill="white"/>
<path d="M72.3403 260.613L72.2891 250.373H72.3403V260.613Z" fill="white"/>
<path d="M438.252 260.618L438.2 250.378H438.252V260.618ZM422.395 260.618L422.344 250.378H422.395V260.618ZM422.339 260.618H406.426V250.378H422.344L422.339 260.618ZM406.426 260.618L406.375 250.378H406.426V260.618ZM390.569 260.618L390.518 250.378H390.569V260.618ZM390.518 260.618H374.605V250.378H390.518V260.618ZM374.605 260.618L374.554 250.378H374.605V260.618ZM358.748 260.618L358.697 250.527V260.618L342.784 260.465L342.733 250.373H342.784H358.748V260.618ZM326.927 260.618L326.871 250.378H326.927V260.618ZM326.871 260.618H310.963V250.378H326.871V260.618ZM310.963 260.618L310.907 250.378H310.963V260.618ZM295.102 260.618L295.045 250.378H295.102V260.618ZM295.045 260.618H279.137V250.378H295.045V260.618ZM279.137 260.618L279.086 250.378H279.137V260.618ZM263.276 260.618L263.224 250.378H263.276V260.618ZM263.224 260.618H247.317V250.378H263.224V260.618ZM247.317 260.618L247.26 250.378H247.317V260.618ZM231.455 260.618L231.404 250.378H231.455V260.618ZM231.404 260.618H215.496V250.378H231.404V260.618ZM215.496 260.618L215.434 250.378H215.496V260.618ZM199.634 260.618L199.583 250.378H199.634V260.618ZM199.578 260.618H183.665V250.378H199.583L199.578 260.618ZM183.665 260.618L183.619 250.378H183.665V260.618ZM167.808 260.613L167.757 250.373H167.808V260.613ZM167.757 260.613H151.844V250.373H167.757V260.613ZM151.844 260.613L151.793 250.373H151.844V260.613ZM135.987 260.613L135.936 250.373H135.987V260.613ZM135.936 260.613H120.023V250.373H135.936V260.613ZM120.023 260.613L119.972 250.373H120.023V260.613ZM104.167 260.613L104.115 250.373H104.167V260.613ZM104.11 260.613H88.1973V250.373H104.115L104.11 260.613Z" fill="white"/>
<path d="M438.251 250.378H445.931V260.618H438.251V250.378Z" fill="white"/>
</svg>
