<svg width="512" height="512" viewBox="0 0 512 512" fill="none" xmlns="http://www.w3.org/2000/svg">
<path d="M94.8528 282.179L54.9629 255.058L96.6858 231.081L101.79 239.959L74.2499 255.79L100.608 273.71L94.8528 282.179Z" fill="white"/>
<path d="M439.711 250.373H447.391V260.613H439.711V250.373Z" fill="white"/>
<path d="M439.71 260.613H439.659V250.373L439.71 260.613Z" fill="white"/>
<path d="M153.303 260.618V250.378H169.216L169.267 260.618H153.303ZM153.303 260.618H153.251V250.378L153.303 260.618ZM137.446 260.618H121.482V250.378H137.395L137.446 260.618ZM121.482 260.618H121.431V250.378L121.482 260.618ZM105.62 260.618H89.6559V250.378H105.569L105.62 260.618ZM89.6559 260.618H89.6047V250.378L89.6559 260.618ZM73.7992 260.618H73.748V250.378L73.7992 260.618ZM328.381 260.618H312.417V250.378H328.33L328.381 260.618ZM312.417 260.618H312.366V250.378L312.417 260.618ZM296.56 260.618H280.596V250.378H296.504L296.56 260.618ZM280.596 260.618H280.545V250.378L280.596 260.618ZM264.739 260.618H248.775V250.378H264.683L264.739 260.618ZM248.775 260.618H248.719V250.378L248.775 260.618ZM232.913 260.618H216.949V250.378H232.857L232.913 260.618ZM216.949 260.618H216.893V250.378L216.949 260.618ZM201.088 260.618H185.123V250.378H201.031L201.088 260.618ZM185.123 260.618H185.072V250.378L185.123 260.618ZM423.797 260.613H407.884V250.373H423.797V260.613ZM407.884 260.613H407.833V250.373L407.884 260.613ZM392.028 260.613H376.064V250.373H391.977L392.028 260.613ZM376.064 260.613H376.012V250.373L376.064 260.613ZM360.207 260.613H344.243V250.373H360.156L360.207 260.613ZM344.243 260.613H344.186V250.373L344.243 260.613Z" fill="white"/>
<path d="M66.0684 250.378H73.7484V260.618H66.0684V250.378Z" fill="white"/>
</svg>
