<svg width="373" height="398" viewBox="0 0 373 398" fill="none" xmlns="http://www.w3.org/2000/svg">
<line x1="40.0406" y1="116.18" x2="106.382" y2="153.678" stroke="#F4F4F5" stroke-width="21.6332"/>
<line x1="99.5024" y1="261.275" x2="98.2897" y2="145.905" stroke="#F4F4F5" stroke-width="21.6332"/>
<line x1="278.874" y1="261.367" x2="276.59" y2="146.013" stroke="#F4F4F5" stroke-width="21.6332"/>
<line x1="93.8835" y1="151.58" x2="193.285" y2="93.0044" stroke="#F4F4F5" stroke-width="21.6332"/>
<line x1="184.986" y1="310.421" x2="284.387" y2="251.846" stroke="#F4F4F5" stroke-width="21.6332"/>
<line x1="95.5681" y1="258.502" x2="194.97" y2="199.926" stroke="#F4F4F5" stroke-width="21.6332"/>
<line y1="-10.8166" x2="115.377" y2="-10.8166" transform="matrix(-0.861541 -0.507689 -0.507689 0.861541 275.454 267.821)" stroke="#F4F4F5" stroke-width="21.6332"/>
<line y1="-10.8166" x2="115.377" y2="-10.8166" transform="matrix(0 -1 -1 0 176.054 217.898)" stroke="#F4F4F5" stroke-width="21.6332"/>
<path d="M280.257 153.138L182.304 92.8714" stroke="#F4F4F5" stroke-width="21.6332"/>
<path d="M194.459 310.008L94.1071 251.86" stroke="#F4F4F5" stroke-width="21.6332"/>
<line x1="188.313" y1="377.752" x2="188.313" y2="301.547" stroke="#F4F4F5" stroke-width="21.6332"/>
<line x1="271.427" y1="155.667" x2="336.696" y2="116.332" stroke="#F4F4F5" stroke-width="21.6332"/>
<path d="M30.0516 117.096L191.254 19.0061" stroke="#F4F4F5" stroke-width="21.6332"/>
<path d="M343.266 115.755L180.186 18.9999" stroke="#F4F4F5" stroke-width="21.6332"/>
<line x1="35.4398" y1="295.58" x2="35.4398" y2="108.092" stroke="#F4F4F5" stroke-width="21.6332"/>
<path d="M338.303 295.58V106.65" stroke="#F4F4F5" stroke-width="21.6332"/>
<path d="M30 286.155L191.145 379.223" stroke="#F4F4F5" stroke-width="21.6332"/>
<path d="M343.674 286.089L180.381 379.228" stroke="#F4F4F5" stroke-width="21.6332"/>
</svg>
