<svg width="133" height="110" xmlns="http://www.w3.org/2000/svg" xmlns:xlink="http://www.w3.org/1999/xlink" xml:space="preserve" overflow="hidden"><defs><clipPath id="clip0"><rect x="64" y="102" width="133" height="110"/></clipPath></defs><g clip-path="url(#clip0)" transform="translate(-64 -102)"><path d="M34.314 75.012 29.659 75.012 29.26 73.017C32.718 70.623 34.713 67.697 35.245 64.505 37.107 64.106 38.038 62.776 38.038 60.382 38.038 58.653 37.639 57.323 36.708 56.525 36.309 56.259 35.777 55.86 34.979 55.727 34.979 54.397 34.979 52.934 34.846 51.072 34.846 50.141 34.58 49.343 34.447 48.545 34.713 47.082 34.846 45.619 34.58 44.289 34.447 43.89 34.048 43.624 33.516 43.757 33.25 43.89 32.984 43.89 32.718 44.023 32.718 43.624 32.851 43.225 32.718 42.826 32.718 42.294 32.186 42.028 31.654 42.161 29.659 42.959 26.733 43.624 22.876 43.624 16.625 43.624 11.438 43.89 11.039 51.072 11.039 53.067 10.906 54.53 11.039 55.86 10.241 55.993 9.576 56.259 9.31 56.658 8.512 57.456 7.98 58.653 7.98 60.515 7.98 62.909 8.911 64.239 10.773 64.638 11.305 67.83 13.433 70.756 16.758 73.15L16.226 75.145 11.571 75.145C7.049 75.145 3.325 78.869 3.325 83.391L3.325 87.78C3.325 89.376 4.655 90.706 6.251 90.706L39.634 90.706C41.23 90.706 42.56 89.376 42.56 87.78L42.56 83.258C42.693 78.736 38.969 75.012 34.314 75.012ZM12.901 63.707C12.901 63.042 12.236 62.51 11.571 62.377 10.773 62.244 10.108 62.244 10.108 60.382 10.108 58.919 10.507 58.387 10.64 58.254 10.64 58.254 10.906 58.121 11.305 58.121 11.305 58.786 11.438 59.451 11.571 59.85 11.704 60.648 13.699 60.515 13.832 59.85 13.965 59.318 13.433 55.594 15.295 52.269 17.157 53.067 19.95 53.466 23.009 53.466 26.068 53.466 28.861 52.934 30.723 52.269 32.452 55.594 32.053 59.318 32.186 59.85 32.319 60.515 34.314 60.515 34.447 59.85 34.58 59.451 34.58 58.919 34.713 58.121 35.112 58.121 35.245 58.254 35.378 58.254 35.644 58.387 35.91 58.919 35.91 60.382 35.91 62.244 35.245 62.244 34.447 62.377 33.782 62.377 33.25 63.042 33.117 63.707 32.851 66.5 30.989 69.16 27.797 71.421 25.004 73.416 21.014 73.416 18.221 71.421 14.896 69.027 13.167 66.5 12.901 63.707ZM27.132 78.603 24.206 80.864C23.541 81.396 22.477 81.396 21.812 80.864L18.886 78.603C18.221 78.071 17.955 77.273 18.221 76.475L18.886 74.081C20.216 74.613 21.679 75.012 23.142 75.012 24.605 75.012 26.068 74.746 27.398 74.081L28.063 76.475C28.063 77.273 27.797 78.071 27.132 78.603ZM40.432 87.78C40.432 88.179 40.033 88.578 39.634 88.578L6.251 88.578C5.852 88.578 5.453 88.179 5.453 87.78L5.453 83.258C5.453 79.933 8.113 77.14 11.571 77.14L15.827 77.14C15.827 78.337 16.492 79.534 17.556 80.332L20.482 82.593C21.28 83.125 22.078 83.391 23.009 83.391 23.94 83.391 24.738 83.125 25.536 82.593L28.462 80.332C29.526 79.534 30.058 78.47 30.191 77.14L34.447 77.14C37.772 77.14 40.565 79.8 40.565 83.258L40.565 87.78Z" fill="#FFFFFF" transform="matrix(1 0 0 1.00813 64 102)"/><path d="M20.881 59.318C20.881 60.4198 19.9878 61.313 18.886 61.313 17.7842 61.313 16.891 60.4198 16.891 59.318 16.891 58.2162 17.7842 57.323 18.886 57.323 19.9878 57.323 20.881 58.2162 20.881 59.318Z" fill="#FFFFFF" transform="matrix(1 0 0 1.00813 64 102)"/><path d="M29.127 59.318C29.127 60.4198 28.2338 61.313 27.132 61.313 26.0302 61.313 25.137 60.4198 25.137 59.318 25.137 58.2162 26.0302 57.323 27.132 57.323 28.2338 57.323 29.127 58.2162 29.127 59.318Z" fill="#FFFFFF" transform="matrix(1 0 0 1.00813 64 102)"/><path d="M23.009 68.362C25.004 68.362 26.733 67.431 27.664 65.968 27.93 65.436 27.797 64.771 27.398 64.372 26.866 64.106 26.201 64.239 25.802 64.638 25.27 65.436 24.206 65.968 23.009 65.968 21.812 65.968 20.748 65.436 20.216 64.638 19.95 64.106 19.152 63.973 18.62 64.372 18.088 64.638 17.955 65.436 18.354 65.968 19.285 67.431 21.014 68.362 23.009 68.362Z" fill="#FFFFFF" transform="matrix(1 0 0 1.00813 64 102)"/><path d="M77.938 75.012 73.682 75.012C73.682 74.879 73.682 74.746 73.549 74.613L72.884 72.618C77.938 73.017 81.662 72.751 80.598 62.244 81.263 61.579 81.529 60.515 81.529 59.185 81.529 57.456 81.13 56.126 80.199 55.328 79.933 55.195 79.667 54.929 79.268 54.796 76.741 42.826 68.096 43.092 66.5 43.092 64.904 43.092 56.259 42.959 53.732 54.796 53.333 54.929 52.934 55.195 52.801 55.328 52.003 56.126 51.471 57.323 51.471 59.185 51.471 60.648 51.87 61.579 52.535 62.377 51.471 72.884 55.328 73.15 60.249 72.618L59.584 74.48C59.584 74.613 59.451 74.746 59.451 74.879L55.195 74.879C50.673 74.879 46.949 78.603 46.949 83.125L46.949 87.78C46.949 89.376 48.279 90.706 49.875 90.706L83.258 90.706C84.854 90.706 86.184 89.376 86.184 87.78L86.184 83.258C86.184 78.736 82.46 75.012 77.938 75.012ZM56.392 62.377C56.392 61.712 55.727 61.18 55.062 61.047 54.264 60.914 53.599 60.914 53.599 59.052 53.599 57.589 53.998 57.057 54.131 56.924 54.131 56.924 54.264 56.791 54.397 56.791 54.53 57.19 54.796 57.589 55.328 57.589 55.993 57.722 56.525 57.323 56.658 56.658 56.791 55.594 57.19 54.663 57.456 53.732 59.318 53.865 62.111 53.333 65.037 51.87 66.5 51.205 67.83 50.407 68.894 49.476 69.293 49.875 69.825 50.407 70.357 50.806 72.219 52.269 74.214 53.333 75.544 53.599 75.943 54.53 76.209 55.461 76.342 56.525 76.475 57.057 76.874 57.456 77.406 57.456 77.406 57.456 77.539 57.456 77.539 57.456 77.938 57.323 78.337 57.057 78.47 56.658 78.603 56.658 78.603 56.791 78.736 56.791 79.002 56.924 79.268 57.456 79.268 58.919 79.268 60.781 78.603 60.781 77.805 60.914 77.14 60.914 76.608 61.579 76.475 62.244 76.209 65.037 74.347 67.697 71.155 69.958 68.362 71.953 64.372 71.953 61.579 69.958 58.52 67.83 56.658 65.303 56.392 62.377ZM70.756 76.342C68.096 77.805 64.904 77.805 62.244 76.342 61.845 76.076 61.446 75.677 61.579 75.278L62.377 73.017C63.707 73.549 65.037 73.815 66.5 73.815 67.963 73.815 69.293 73.549 70.623 73.017L71.421 75.278C71.554 75.81 71.155 76.209 70.756 76.342ZM83.923 87.78C83.923 88.179 83.524 88.578 83.125 88.578L49.875 88.578C49.476 88.578 49.077 88.179 49.077 87.78L49.077 83.258C49.077 79.933 51.87 77.14 55.195 77.14L59.85 77.14C60.116 77.539 60.515 77.938 61.047 78.337 62.643 79.268 64.505 79.667 66.367 79.667 68.229 79.667 70.091 79.268 71.687 78.337 72.219 78.071 72.618 77.672 72.884 77.14L77.672 77.14C80.997 77.14 83.79 79.8 83.79 83.258L83.79 87.78Z" fill="#FFFFFF" transform="matrix(1 0 0 1.00813 64 102)"/><path d="M64.372 58.121C64.372 59.2228 63.4788 60.116 62.377 60.116 61.2752 60.116 60.382 59.2228 60.382 58.121 60.382 57.0192 61.2752 56.126 62.377 56.126 63.4788 56.126 64.372 57.0192 64.372 58.121Z" fill="#FFFFFF" transform="matrix(1 0 0 1.00813 64 102)"/><path d="M72.618 58.121C72.618 59.2228 71.7248 60.116 70.623 60.116 69.5212 60.116 68.628 59.2228 68.628 58.121 68.628 57.0192 69.5212 56.126 70.623 56.126 71.7248 56.126 72.618 57.0192 72.618 58.121Z" fill="#FFFFFF" transform="matrix(1 0 0 1.00813 64 102)"/><path d="M66.5 67.165C68.495 67.165 70.224 66.234 71.155 64.771 71.421 64.239 71.288 63.574 70.889 63.175 70.357 62.909 69.692 63.042 69.293 63.441 68.761 64.239 67.697 64.771 66.5 64.771 65.303 64.771 64.239 64.239 63.707 63.441 63.441 62.909 62.643 62.776 62.111 63.175 61.579 63.441 61.446 64.239 61.845 64.771 62.776 66.234 64.638 67.165 66.5 67.165Z" fill="#FFFFFF" transform="matrix(1 0 0 1.00813 64 102)"/><path d="M121.429 75.012 116.774 75.012 116.242 73.017C119.833 70.889 121.695 67.032 122.227 64.106 124.089 63.707 125.02 62.377 125.02 59.983 125.02 58.254 124.621 56.924 123.69 56.126 123.424 55.86 122.892 55.594 122.227 55.461 122.227 54.929 122.227 54.53 122.094 53.998 121.429 44.422 114.912 43.491 109.858 43.491 104.804 43.491 98.42 44.422 97.622 53.998 97.622 54.53 97.622 55.062 97.489 55.461 96.824 55.594 96.292 55.86 96.026 56.126 95.228 56.924 94.696 58.121 94.696 59.983 94.696 62.377 95.627 63.707 97.489 64.106 98.021 67.032 99.883 70.889 103.474 73.017L102.942 75.012 98.287 75.012C93.765 75.012 90.041 78.736 90.041 83.258L90.041 87.78C90.041 89.376 91.371 90.706 92.967 90.706L126.35 90.706C127.946 90.706 129.276 89.376 129.276 87.78L129.276 83.258C129.675 78.736 125.951 75.012 121.429 75.012ZM99.883 63.175C99.883 62.51 99.218 61.978 98.553 61.845 97.755 61.712 97.09 61.712 97.09 59.85 97.09 58.387 97.489 57.855 97.622 57.722 97.622 57.722 97.888 57.589 98.287 57.589 98.42 58.254 98.42 58.919 98.553 59.318 98.819 60.116 99.617 59.983 99.75 59.318 99.883 58.786 100.282 55.86 101.878 52.934 102.809 53.732 104.006 54.264 105.336 54.397 105.469 54.397 105.602 54.264 105.469 54.131 105.203 53.599 105.07 52.934 104.937 52.269 106.134 53.333 107.996 54.796 110.39 54.663 110.523 54.663 110.656 54.53 110.523 54.397 110.257 53.998 109.991 53.466 109.725 52.801 111.055 53.599 113.183 54.53 115.444 53.998 115.577 53.998 115.577 53.732 115.444 53.732 115.045 53.333 114.646 52.801 114.247 52.269 115.178 52.801 116.508 53.333 117.971 53.333 119.434 56.126 119.833 58.919 119.966 59.318 120.099 59.983 120.897 60.116 121.163 59.318 121.296 58.919 121.296 58.387 121.429 57.589 121.828 57.589 122.094 57.722 122.094 57.722 122.36 57.855 122.626 58.387 122.626 59.85 122.626 61.712 121.961 61.712 121.163 61.845 120.498 61.845 119.966 62.51 119.833 63.175 119.434 66.766 116.375 72.352 109.725 72.352 103.341 72.352 100.282 66.766 99.883 63.175ZM114.114 78.603 111.188 80.864C110.523 81.396 109.459 81.396 108.794 80.864L105.868 78.603C105.203 78.071 104.937 77.273 105.203 76.475L105.868 73.948C107.065 74.347 108.528 74.613 109.991 74.613 111.587 74.613 112.917 74.347 114.114 73.948L114.779 76.475C115.045 77.273 114.779 78.071 114.114 78.603ZM127.414 87.78C127.414 88.179 127.148 88.578 126.616 88.578L93.366 88.578C92.967 88.578 92.568 88.179 92.568 87.78L92.568 83.258C92.568 79.933 95.228 77.14 98.686 77.14L102.942 77.14C102.942 78.337 103.607 79.534 104.671 80.332L107.597 82.593C108.395 83.125 109.193 83.391 110.124 83.391 111.055 83.391 111.853 83.125 112.651 82.593L115.577 80.332C116.641 79.534 117.173 78.47 117.306 77.14L121.562 77.14C124.887 77.14 127.68 79.8 127.68 83.258L127.68 87.78Z" fill="#FFFFFF" transform="matrix(1 0 0 1.00813 64 102)"/><path d="M107.863 59.451C107.863 60.5528 106.97 61.446 105.868 61.446 104.766 61.446 103.873 60.5528 103.873 59.451 103.873 58.3492 104.766 57.456 105.868 57.456 106.97 57.456 107.863 58.3492 107.863 59.451Z" fill="#FFFFFF" transform="matrix(1 0 0 1.00813 64 102)"/><path d="M116.109 59.451C116.109 60.5528 115.216 61.446 114.114 61.446 113.012 61.446 112.119 60.5528 112.119 59.451 112.119 58.3492 113.012 57.456 114.114 57.456 115.216 57.456 116.109 58.3492 116.109 59.451Z" fill="#FFFFFF" transform="matrix(1 0 0 1.00813 64 102)"/><path d="M114.779 66.101C115.045 65.569 114.912 64.904 114.513 64.505 113.981 64.239 113.316 64.372 112.917 64.771 112.385 65.569 111.321 66.101 110.124 66.101 108.927 66.101 107.863 65.569 107.331 64.771 107.065 64.239 106.267 64.106 105.735 64.505 105.203 64.771 105.07 65.569 105.469 66.101 106.4 67.564 108.262 68.495 110.124 68.495 111.986 68.495 113.715 67.564 114.779 66.101Z" fill="#FFFFFF" transform="matrix(1 0 0 1.00813 64 102)"/><text fill="#FFFFFF" font-family="Helvetica,Helvetica_MSFontService,sans-serif" font-weight="700" font-size="5" transform="matrix(1.33 0 0 1.34081 64 256)">Created by Adrien Coquet</text><text fill="#FFFFFF" font-family="Helvetica,Helvetica_MSFontService,sans-serif" font-weight="700" font-size="5" transform="matrix(1.33 0 0 1.34081 64 263)">from the Noun Project</text></g></svg>