<svg width="64" height="56" xmlns="http://www.w3.org/2000/svg" xmlns:xlink="http://www.w3.org/1999/xlink" xml:space="preserve" overflow="hidden"><defs><clipPath id="clip0"><rect x="779" y="390" width="64" height="56"/></clipPath><clipPath id="clip1"><rect x="785" y="390" width="58" height="56"/></clipPath></defs><g clip-path="url(#clip0)" transform="translate(-779 -390)"><g clip-path="url(#clip1)"><g><path d="M49.7109 31.5877 37.4962 31.5877C34.6556 31.5877 32.3831 33.8602 32.3831 36.7008L32.3831 48.9155C32.3831 51.7561 34.6556 54.0286 37.4962 54.0286L49.7109 54.0286C52.5515 54.0286 54.824 51.7561 54.824 48.9155L54.824 36.7008C54.824 33.917 52.5515 31.5877 49.7109 31.5877ZM53.1196 48.9155C53.1196 50.7903 51.5857 52.3242 49.7109 52.3242L37.4962 52.3242C35.6214 52.3242 34.0875 50.7903 34.0875 48.9155L34.0875 36.7008C34.0875 34.826 35.6214 33.2921 37.4962 33.2921L49.7109 33.2921C51.5857 33.2921 53.1196 34.826 53.1196 36.7008L53.1196 48.9155Z" fill="#A9B4C2" transform="matrix(1.00568 0 0 1 785.865 390)"/><path d="M43.6319 25.2247C49.8245 25.2247 54.824 20.2252 54.824 14.0327 54.824 7.84011 49.8245 2.78381 43.6319 2.78381 37.4394 2.78381 32.4399 7.7833 32.4399 13.9759 32.4399 20.1684 37.4394 25.2247 43.6319 25.2247ZM43.6319 4.48818C48.8587 4.48818 53.1196 8.74911 53.1196 13.9759 53.1196 19.2026 48.8587 23.5203 43.6319 23.5203 38.4052 23.5203 34.1443 19.2594 34.1443 14.0327 34.1443 8.80592 38.4052 4.48818 43.6319 4.48818Z" fill="#A9B4C2" transform="matrix(1.00568 0 0 1 785.865 390)"/><path d="M4.43137 25.2247 25.1111 25.2247C25.5656 25.2247 25.9633 24.827 25.9633 24.3725L25.9633 3.63599C25.9633 3.1815 25.5656 2.78381 25.1111 2.78381L4.43137 2.78381C3.97687 2.78381 3.57918 3.1815 3.57918 3.63599L3.57918 24.3157C3.57918 24.827 3.97687 25.2247 4.43137 25.2247ZM5.28356 4.48818 24.2589 4.48818 24.2589 23.4635 5.28356 23.4635 5.28356 4.48818Z" fill="#A9B4C2" transform="matrix(1.00568 0 0 1 785.865 390)"/><path d="M15.5098 32.0422C15.3394 31.7581 15.0553 31.5877 14.7712 31.5877 14.4872 31.5877 14.2031 31.7581 14.0327 32.0422L2.10206 52.7219C2.04525 52.8355 1.98843 53.006 1.98843 53.1764 1.98843 53.3469 2.04525 53.4605 2.10206 53.6309 2.2725 53.8582 2.55656 54.0286 2.84062 54.0286L26.7586 54.0286C27.0427 54.0286 27.3268 53.8582 27.4972 53.5741 27.554 53.4605 27.6108 53.2901 27.6108 53.1196 27.6108 52.9492 27.554 52.8355 27.4972 52.6651L15.5098 32.0422ZM4.31774 52.3242 14.7712 34.1443 25.2247 52.2674 4.31774 52.2674Z" fill="#A9B4C2" transform="matrix(1.00568 0 0 1 785.865 390)"/><text fill="#A9B4C2" font-family="Helvetica,Helvetica_MSFontService,sans-serif" font-weight="700" font-size="5" transform="matrix(0.571352 0 0 0.568124 785.865 455)">Created by Justin Blake</text><text fill="#A9B4C2" font-family="Helvetica,Helvetica_MSFontService,sans-serif" font-weight="700" font-size="5" transform="matrix(0.571352 0 0 0.568124 785.865 458)">from the Noun Project</text></g></g></g></svg>