<svg width="512" height="512" viewBox="0 0 512 512" fill="none" xmlns="http://www.w3.org/2000/svg">
<path d="M256.333 456.53L232.361 414.807L241.239 409.708L257.065 437.243L274.985 410.885L283.453 416.645L256.333 456.53Z" fill="white"/>
<path d="M251.648 64.1075H261.888V71.7875H251.648V64.1075Z" fill="white"/>
<path d="M261.888 71.8387H251.648L261.888 71.7875V71.8387Z" fill="white"/>
<path d="M261.898 437.745H251.658L261.898 437.693V437.745ZM261.898 421.888H251.658L261.898 421.837V421.888ZM261.898 421.837H251.658V405.924H261.898V421.837ZM261.898 405.924H251.658L261.898 405.873V405.924ZM261.898 390.067H251.658L261.898 390.016V390.067ZM261.898 390.016L251.658 390.011V374.098H261.898V390.016ZM261.898 374.098H251.658L261.898 374.047V374.098ZM261.898 358.241H251.658L261.898 358.19V358.241ZM251.658 358.19L251.653 342.277L261.893 342.226L261.898 358.19H251.658ZM261.893 326.42H251.653L261.893 326.369V326.42ZM261.893 326.369H251.653V310.456H261.893V326.369ZM261.893 310.456H251.653L261.893 310.405V310.456ZM261.893 294.6H251.653L261.893 294.548V294.6ZM261.893 294.548L251.653 294.543V278.63H261.893V294.548ZM261.893 278.63H251.653L261.893 278.579V278.63ZM261.893 262.774H251.653L261.893 262.723V262.774ZM261.893 262.723H251.653V246.81H261.893V262.723ZM261.893 246.81H251.653L261.893 246.758V246.81ZM261.893 230.953H251.653L261.893 230.902V230.953ZM261.893 230.902H251.653V214.989H261.893V230.902ZM261.893 214.989H251.653L261.893 214.938V214.989ZM261.893 199.132H251.653L261.893 199.081V199.132ZM261.893 199.081L251.653 199.076V183.163H261.893V199.081ZM261.893 183.163H251.653L261.893 183.112V183.163ZM261.888 167.306H251.648L261.888 167.255V167.306ZM261.888 167.255H251.648V151.342H261.888V167.255ZM261.888 151.342H251.648L261.888 151.291V151.342ZM261.888 135.485H251.648L261.888 135.434V135.485ZM261.888 135.434H251.648V119.521H261.888V135.434ZM261.888 119.521H251.648L261.888 119.47V119.521ZM261.888 103.665H251.648L261.888 103.613V103.665ZM261.888 103.613L251.648 103.608V87.6954H261.888V103.613Z" fill="white"/>
<path d="M251.658 437.745H261.898V445.425H251.658V437.745Z" fill="white"/>
</svg>
