<?xml version="1.0" encoding="UTF-8"?>
<svg id="Layer_1" data-name="Layer 1" xmlns="http://www.w3.org/2000/svg" version="1.1" xmlns:xlink="http://www.w3.org/1999/xlink" viewBox="0 0 82 78">
  <defs>
    <style>
      .cls-1 {
        fill: none;
      }

      .cls-1, .cls-2 {
        stroke-width: 0px;
      }

      .cls-3 {
        clip-path: url(#clippath);
      }

      .cls-2 {
        fill: #a9b4c2;
      }
    </style>
    <clipPath id="clippath">
      <rect class="cls-1" y="0" width="82" height="78"/>
    </clipPath>
  </defs>
  <g class="cls-3">
    <g>
      <path class="cls-2" d="M41,1.7c-5.3,0-9.6,4.3-9.6,9.6s4.3,9.6,9.6,9.6,9.6-4.3,9.6-9.6S46.3,1.7,41,1.7ZM41,19.1c-4.3,0-7.8-3.5-7.8-7.8s3.5-7.8,7.8-7.8,7.8,3.5,7.8,7.8-3.5,7.8-7.8,7.8Z"/>
      <path class="cls-2" d="M61.8,47.4v-8.7c0-8.1-6.5-14.6-14.6-14.6h0c-.3,0-.6.2-.8.4l-5.4,8.7-5.4-8.7c-.2-.3-.5-.4-.8-.4h0c-8,0-14.6,6.5-14.6,14.6v8.7c0,.5.4.9.9.9h39.8c.5,0,.9-.4.9-.9ZM60,46.5h-5.6v-6.6c0-.5-.4-.9-.9-.9s-.9.4-.9.9v6.6h-23v-6.6c0-.5-.4-.9-.9-.9s-.9.4-.9.9v6.6h-5.6v-7.8c0-6.8,5.3-12.4,12.1-12.8h.2s5.9,9.5,5.9,9.5c.1.2.3.4.6.4.2,0,.5,0,.7-.1.1,0,.2-.2.3-.3l5.9-9.5h.2c6.8.4,12.1,6,12.1,12.8v7.8Z"/>
      <path class="cls-2" d="M5.9,28.7c0-9.4,3.7-18.2,10.3-24.9,6.6-6.6,15.5-10.3,24.8-10.3h0c3.3,0,6.6.5,9.8,1.4l.7.2-2.5,1.5c-.4.2-.5.8-.3,1.2.2.4.8.6,1.2.3l4.3-2.4c.2-.1.4-.3.4-.5,0-.2,0-.5,0-.7l-2.4-4.4c-.2-.4-.8-.6-1.3-.3-.4.3-.6.8-.3,1.3l1.3,2.3-.8-.2c-3.4-1-6.8-1.4-10.2-1.4-6.2,0-12.3,1.6-17.9,4.7C14.5,1.3,8.2,9.1,5.5,18.6c-3.7,12.9,0,26.8,9.4,36.2.4.4.9.4,1.3,0,.4-.4.4-.9,0-1.3-6.6-6.5-10.3-15.6-10.3-24.9Z"/>
      <path class="cls-2" d="M67.1,2.6h0c-.2-.2-.4-.3-.6-.3-.2,0-.5,0-.7.2-.4.3-.4.9,0,1.3,0,0,0,0,.1.1,13.7,13.7,13.7,36.1,0,49.8-9.1,9.1-22.4,12.5-34.7,8.9l-.8-.2,2.5-1.4c.4-.2.6-.8.3-1.3-.1-.2-.3-.4-.6-.4,0,0-.2,0-.2,0-.2,0-.3,0-.5.1l-4.4,2.4c-.2.1-.4.3-.4.5,0,.2,0,.5,0,.7l2.4,4.4c.2.4.8.6,1.2.4.4-.2.6-.8.3-1.2l-1.3-2.3.8.2c9.5,2.7,19.5,1.6,28.1-3.2,8.6-4.8,14.9-12.7,17.6-22.1,3.7-12.9.1-26.9-9.4-36.4Z"/>
    </g>
  </g>
</svg>