<svg width="640" height="360" viewBox="0 0 640 360" fill="none" xmlns="http://www.w3.org/2000/svg">
<path d="M18 26.8486L60.7515 5L103 26.8486V77.6595L60.7515 99L18 77.6595V26.8486Z" fill="#000014"/>
<path d="M60 154.849L102.751 133L145 154.849V205.659L102.751 227L60 205.659V154.849Z" fill="#000014"/>
<path d="M535 123.849L577.751 102L620 123.849V174.659L577.751 196L535 174.659V123.849Z" fill="#000014"/>
<path d="M103 28.5C132 25.3333 192.985 29.2054 214 65C259.5 142.5 127.26 137.551 205 70.5C245 36 293 66 328 88C408 138.286 479.5 170.7 533.5 157.5" stroke="#18CFD4" stroke-width="1.5" stroke-dasharray="4 4"/>
<path d="M145.5 168C201 156.5 218.122 189.849 298 218C411.5 258 495.614 174.153 501.5 168C512.5 156.5 525.667 158.5 534.5 156.5" stroke="#18CFD4" stroke-width="1.5" stroke-dasharray="4 4"/>
<path d="M251 304.5C252.667 299.5 267.2 293.6 312 310C356.8 326.4 387.5 301 387.5 280C387 270.167 380.4 252.5 358 260.5C330 270.5 317.557 304.156 369.5 324.5C429.5 348 477.5 268 487 240C496.5 212 512 168.5 534.5 156.5" stroke="#18CFD4" stroke-width="1.5" stroke-dasharray="4 4"/>
<path d="M166 282.849L208.751 261L251 282.849V333.659L208.751 355L166 333.659V282.849Z" fill="#000014"/>
<path d="M50.5635 44H46.3643V36.998H50.4023V38.2822H47.9414V39.8398H50.2314V41.1191H47.9414V42.7207H50.5635V44Z" fill="white"/>
<path d="M57.5654 36.998L55.1533 44H53.3662L50.9834 36.998H52.6826L54.1426 41.8711C54.1816 42.0046 54.2126 42.1299 54.2354 42.2471C54.2581 42.361 54.2744 42.4684 54.2842 42.5693H54.3135C54.3265 42.4619 54.3444 42.348 54.3672 42.2275C54.3932 42.1071 54.4258 41.9818 54.4648 41.8516L55.915 36.998H57.5654Z" fill="white"/>
<path d="M62.6045 44H58.4053V36.998H62.4434V38.2822H59.9824V39.8398H62.2725V41.1191H59.9824V42.7207H62.6045V44Z" fill="white"/>
<path d="M69.416 44H67.6338L66.7012 42.2764C66.5514 41.9964 66.4001 41.7848 66.2471 41.6416C66.0973 41.4984 65.9248 41.417 65.7295 41.3975H65.3047V44H63.7275V36.998H66.2275C67.0771 36.998 67.7135 37.1641 68.1367 37.4961C68.5632 37.8249 68.7764 38.3197 68.7764 38.9805C68.7764 39.446 68.6396 39.848 68.3662 40.1865C68.0928 40.5218 67.7184 40.7692 67.2432 40.9287V40.9482C67.4515 41.0133 67.6452 41.1501 67.8242 41.3584C68.0065 41.5667 68.1611 41.7832 68.2881 42.0078L69.416 44ZM65.3047 38.1797V40.2061H65.9883C66.3301 40.2061 66.6035 40.1035 66.8086 39.8984C67.0137 39.6934 67.1162 39.4395 67.1162 39.1367C67.1162 38.8177 67.0251 38.5785 66.8428 38.4189C66.6605 38.2594 66.3854 38.1797 66.0176 38.1797H65.3047Z" fill="white"/>
<path d="M75.4365 36.998L73.1562 41.5098V44H71.5791V41.5391L69.3574 36.998H71.1592L72.2871 39.6104C72.2969 39.6364 72.3148 39.6966 72.3408 39.791C72.3701 39.8854 72.4059 40.0156 72.4482 40.1816H72.4678C72.4873 40.0645 72.5101 39.9603 72.5361 39.8691C72.5622 39.778 72.5898 39.6982 72.6191 39.6299L73.7666 36.998H75.4365Z" fill="white"/>
<path d="M32.3408 56V48.998H34.8213C36.0648 48.998 36.9974 49.2829 37.6191 49.8525C38.2409 50.4189 38.5518 51.2718 38.5518 52.4111C38.5518 53.5016 38.2116 54.3724 37.5312 55.0234C36.8542 55.6745 35.9508 56 34.8213 56H32.3408ZM33.918 50.2822V54.7207H34.6992C35.3828 54.7207 35.9183 54.5156 36.3057 54.1055C36.6963 53.6953 36.8916 53.137 36.8916 52.4307C36.8916 51.7633 36.6979 51.2393 36.3105 50.8584C35.9264 50.4743 35.3861 50.2822 34.6895 50.2822H33.918Z" fill="white"/>
<path d="M43.9131 56H39.7139V48.998H43.752V50.2822H41.291V51.8398H43.5811V53.1191H41.291V54.7207H43.9131V56Z" fill="white"/>
<path d="M50.2998 55.6582C49.932 55.821 49.5755 55.9382 49.2305 56.0098C48.8854 56.0846 48.5127 56.1221 48.1123 56.1221C47.0218 56.1221 46.1624 55.8177 45.5342 55.209C44.9092 54.597 44.5967 53.723 44.5967 52.5869C44.5967 51.5225 44.9385 50.6387 45.6221 49.9355C46.3057 49.2324 47.2074 48.8809 48.3271 48.8809C48.7015 48.8809 49.0352 48.9069 49.3281 48.959C49.6243 49.0111 49.932 49.0957 50.251 49.2129L49.7871 50.4873C49.5462 50.3994 49.3151 50.3359 49.0938 50.2969C48.8724 50.2578 48.6331 50.2383 48.376 50.2383C47.8031 50.2383 47.3066 50.4401 46.8867 50.8438C46.4668 51.2441 46.2568 51.7878 46.2568 52.4746C46.2568 53.1842 46.4391 53.7393 46.8037 54.1396C47.1715 54.54 47.6745 54.7402 48.3125 54.7402C48.4785 54.7402 48.6885 54.7142 48.9424 54.6621C49.1995 54.6068 49.4648 54.5173 49.7383 54.3936L50.2998 55.6582Z" fill="white"/>
<path d="M52.8535 56H51.2764V48.998H52.8535V56Z" fill="white"/>
<path d="M53.8789 55.5361L54.5332 54.3105C54.8848 54.5189 55.1891 54.6605 55.4463 54.7354C55.7067 54.807 55.9801 54.8428 56.2666 54.8428C56.6442 54.8428 56.9225 54.7712 57.1016 54.6279C57.2806 54.4814 57.3701 54.2829 57.3701 54.0322C57.3701 53.7913 57.2985 53.6074 57.1553 53.4805C57.012 53.3503 56.7484 53.2412 56.3643 53.1533C55.583 52.9743 55.015 52.7204 54.6602 52.3916C54.3053 52.0628 54.1279 51.6038 54.1279 51.0146C54.1279 50.4222 54.3574 49.9193 54.8164 49.5059C55.2754 49.0892 55.9183 48.8809 56.7451 48.8809C57.0902 48.8809 57.4287 48.9199 57.7607 48.998C58.0928 49.0762 58.4085 49.1901 58.708 49.3398L58.1172 50.585C57.847 50.432 57.5931 50.3229 57.3555 50.2578C57.1178 50.1927 56.8965 50.1602 56.6914 50.1602C56.3757 50.1602 56.1299 50.222 55.9541 50.3457C55.7783 50.4694 55.6904 50.6468 55.6904 50.8779C55.6904 51.0895 55.7702 51.2523 55.9297 51.3662C56.0924 51.4801 56.3822 51.5843 56.7988 51.6787C57.5573 51.8512 58.1058 52.1084 58.4443 52.4502C58.7829 52.792 58.9521 53.2738 58.9521 53.8955C58.9521 54.5596 58.7178 55.0967 58.249 55.5068C57.7835 55.917 57.1064 56.1221 56.2178 56.1221C55.8304 56.1221 55.4251 56.0716 55.002 55.9707C54.5788 55.8665 54.2044 55.7217 53.8789 55.5361Z" fill="white"/>
<path d="M61.6328 56H60.0557V48.998H61.6328V56Z" fill="white"/>
<path d="M66.1885 56.1221C65.1859 56.1221 64.3688 55.7965 63.7373 55.1455C63.1058 54.4912 62.79 53.64 62.79 52.5918C62.79 51.485 63.1107 50.5898 63.752 49.9062C64.3932 49.2227 65.2428 48.8809 66.3008 48.8809C67.3001 48.8809 68.1074 49.208 68.7227 49.8623C69.3411 50.5166 69.6504 51.3792 69.6504 52.4502C69.6504 53.5505 69.3298 54.4375 68.6885 55.1113C68.0505 55.7852 67.2171 56.1221 66.1885 56.1221ZM66.2178 54.7598C66.7614 54.7598 67.1927 54.5645 67.5117 54.1738C67.8307 53.7799 67.9902 53.2347 67.9902 52.5381C67.9902 51.8122 67.8356 51.2474 67.5264 50.8438C67.2171 50.4401 66.7939 50.2383 66.2568 50.2383C65.7035 50.2383 65.264 50.4466 64.9385 50.8633C64.613 51.2767 64.4502 51.8252 64.4502 52.5088C64.4502 53.2021 64.613 53.7507 64.9385 54.1543C65.264 54.5579 65.6904 54.7598 66.2178 54.7598Z" fill="white"/>
<path d="M77.1162 56H75.5244L72.6387 51.6006C72.554 51.4704 72.4824 51.3581 72.4238 51.2637C72.3652 51.166 72.3197 51.0846 72.2871 51.0195H72.2676C72.2806 51.1432 72.2904 51.2995 72.2969 51.4883C72.3034 51.6771 72.3066 51.8984 72.3066 52.1523V56H70.8174V48.998H72.5166L75.2949 53.2607C75.3568 53.3551 75.417 53.4512 75.4756 53.5488C75.5374 53.6432 75.5944 53.7376 75.6465 53.832H75.666C75.653 53.7507 75.6432 53.6302 75.6367 53.4707C75.6302 53.3079 75.627 53.1077 75.627 52.8701V48.998H77.1162V56Z" fill="white"/>
<path d="M83.0586 56H81.4814V48.998H83.0586V56Z" fill="white"/>
<path d="M84.084 55.5361L84.7383 54.3105C85.0898 54.5189 85.3942 54.6605 85.6514 54.7354C85.9118 54.807 86.1852 54.8428 86.4717 54.8428C86.8493 54.8428 87.1276 54.7712 87.3066 54.6279C87.4857 54.4814 87.5752 54.2829 87.5752 54.0322C87.5752 53.7913 87.5036 53.6074 87.3604 53.4805C87.2171 53.3503 86.9535 53.2412 86.5693 53.1533C85.7881 52.9743 85.2201 52.7204 84.8652 52.3916C84.5104 52.0628 84.333 51.6038 84.333 51.0146C84.333 50.4222 84.5625 49.9193 85.0215 49.5059C85.4805 49.0892 86.1234 48.8809 86.9502 48.8809C87.2952 48.8809 87.6338 48.9199 87.9658 48.998C88.2979 49.0762 88.6136 49.1901 88.9131 49.3398L88.3223 50.585C88.0521 50.432 87.7982 50.3229 87.5605 50.2578C87.3229 50.1927 87.1016 50.1602 86.8965 50.1602C86.5807 50.1602 86.335 50.222 86.1592 50.3457C85.9834 50.4694 85.8955 50.6468 85.8955 50.8779C85.8955 51.0895 85.9753 51.2523 86.1348 51.3662C86.2975 51.4801 86.5872 51.5843 87.0039 51.6787C87.7624 51.8512 88.3109 52.1084 88.6494 52.4502C88.988 52.792 89.1572 53.2738 89.1572 53.8955C89.1572 54.5596 88.9229 55.0967 88.4541 55.5068C87.9886 55.917 87.3115 56.1221 86.4229 56.1221C86.0355 56.1221 85.6302 56.0716 85.207 55.9707C84.7839 55.8665 84.4095 55.7217 84.084 55.5361Z" fill="white"/>
<path d="M31.7061 67H30.1289V59.998H31.7061V67Z" fill="white"/>
<path d="M39.6016 67H38.0098L35.124 62.6006C35.0394 62.4704 34.9678 62.3581 34.9092 62.2637C34.8506 62.166 34.805 62.0846 34.7725 62.0195H34.7529C34.766 62.1432 34.7757 62.2995 34.7822 62.4883C34.7887 62.6771 34.792 62.8984 34.792 63.1523V67H33.3027V59.998H35.002L37.7803 64.2607C37.8421 64.3551 37.9023 64.4512 37.9609 64.5488C38.0228 64.6432 38.0798 64.7376 38.1318 64.832H38.1514C38.1383 64.7507 38.1286 64.6302 38.1221 64.4707C38.1156 64.3079 38.1123 64.1077 38.1123 63.8701V59.998H39.6016V67Z" fill="white"/>
<path d="M40.6318 66.5361L41.2861 65.3105C41.6377 65.5189 41.9421 65.6605 42.1992 65.7354C42.4596 65.807 42.7331 65.8428 43.0195 65.8428C43.3971 65.8428 43.6755 65.7712 43.8545 65.6279C44.0335 65.4814 44.123 65.2829 44.123 65.0322C44.123 64.7913 44.0514 64.6074 43.9082 64.4805C43.765 64.3503 43.5013 64.2412 43.1172 64.1533C42.3359 63.9743 41.7679 63.7204 41.4131 63.3916C41.0583 63.0628 40.8809 62.6038 40.8809 62.0146C40.8809 61.4222 41.1104 60.9193 41.5693 60.5059C42.0283 60.0892 42.6712 59.8809 43.498 59.8809C43.8431 59.8809 44.1816 59.9199 44.5137 59.998C44.8457 60.0762 45.1615 60.1901 45.4609 60.3398L44.8701 61.585C44.5999 61.432 44.346 61.3229 44.1084 61.2578C43.8708 61.1927 43.6494 61.1602 43.4443 61.1602C43.1286 61.1602 42.8828 61.222 42.707 61.3457C42.5312 61.4694 42.4434 61.6468 42.4434 61.8779C42.4434 62.0895 42.5231 62.2523 42.6826 62.3662C42.8454 62.4801 43.1351 62.5843 43.5518 62.6787C44.3102 62.8512 44.8587 63.1084 45.1973 63.4502C45.5358 63.792 45.7051 64.2738 45.7051 64.8955C45.7051 65.5596 45.4707 66.0967 45.002 66.5068C44.5365 66.917 43.8594 67.1221 42.9707 67.1221C42.5833 67.1221 42.1781 67.0716 41.7549 66.9707C41.3317 66.8665 40.9574 66.7217 40.6318 66.5361Z" fill="white"/>
<path d="M48.3857 67H46.8086V59.998H48.3857V67Z" fill="white"/>
<path d="M55.7295 66.4727C55.404 66.6745 55.0264 66.834 54.5967 66.9512C54.1702 67.0651 53.6982 67.1221 53.1807 67.1221C52.0739 67.1221 51.1901 66.8307 50.5293 66.248C49.8717 65.6621 49.543 64.7832 49.543 63.6113C49.543 62.5436 49.8766 61.6549 50.5439 60.9453C51.2145 60.2357 52.1423 59.8809 53.3271 59.8809C53.7666 59.8809 54.1751 59.9183 54.5527 59.9932C54.9303 60.0648 55.3226 60.1836 55.7295 60.3496L55.2363 61.5703C54.9108 61.4401 54.5983 61.3457 54.2988 61.2871C53.9993 61.2285 53.6755 61.1992 53.3271 61.1992C52.6729 61.1992 52.1553 61.3962 51.7744 61.79C51.3936 62.1807 51.2031 62.7633 51.2031 63.5381C51.2031 64.3161 51.3919 64.8874 51.7695 65.252C52.1504 65.6165 52.6452 65.7988 53.2539 65.7988C53.4427 65.7988 53.612 65.7858 53.7617 65.7598C53.9115 65.7337 54.0417 65.6963 54.1523 65.6475V64.2705H52.751V63.0107H55.7295V66.4727Z" fill="white"/>
<path d="M63.1514 67H61.5693V64.1484H58.6689V67H57.0918V59.998H58.6689V62.791H61.5693V59.998H63.1514V67Z" fill="white"/>
<path d="M69.6699 61.2822H67.6729V67H66.0908V61.2822H64.1035V59.998H69.6699V61.2822Z" fill="white"/>
<path d="M70.5146 64.8711V63.792H73.1855V64.8711H70.5146Z" fill="white"/>
<path d="M78.8301 67H74.6602V59.998H76.2373V65.7207H78.8301V67Z" fill="white"/>
<path d="M83.9766 67H79.7773V59.998H83.8154V61.2822H81.3545V62.8398H83.6445V64.1191H81.3545V65.7207H83.9766V67Z" fill="white"/>
<path d="M85.0996 67V59.998H87.5801C88.8236 59.998 89.7562 60.2829 90.3779 60.8525C90.9997 61.4189 91.3105 62.2718 91.3105 63.4111C91.3105 64.5016 90.9704 65.3724 90.29 66.0234C89.613 66.6745 88.7096 67 87.5801 67H85.0996ZM86.6768 61.2822V65.7207H87.458C88.1416 65.7207 88.6771 65.5156 89.0645 65.1055C89.4551 64.6953 89.6504 64.137 89.6504 63.4307C89.6504 62.7633 89.4567 62.2393 89.0693 61.8584C88.6852 61.4743 88.1449 61.2822 87.4482 61.2822H86.6768Z" fill="white"/>
<path d="M92.0635 172H87.8643V164.998H91.9023V166.282H89.4414V167.84H91.7314V169.119H89.4414V170.721H92.0635V172Z" fill="white"/>
<path d="M99.0654 164.998L96.6533 172H94.8662L92.4834 164.998H94.1826L95.6426 169.871C95.6816 170.005 95.7126 170.13 95.7354 170.247C95.7581 170.361 95.7744 170.468 95.7842 170.569H95.8135C95.8265 170.462 95.8444 170.348 95.8672 170.228C95.8932 170.107 95.9258 169.982 95.9648 169.852L97.415 164.998H99.0654Z" fill="white"/>
<path d="M104.104 172H99.9053V164.998H103.943V166.282H101.482V167.84H103.772V169.119H101.482V170.721H104.104V172Z" fill="white"/>
<path d="M110.916 172H109.134L108.201 170.276C108.051 169.996 107.9 169.785 107.747 169.642C107.597 169.498 107.425 169.417 107.229 169.397H106.805V172H105.228V164.998H107.728C108.577 164.998 109.214 165.164 109.637 165.496C110.063 165.825 110.276 166.32 110.276 166.98C110.276 167.446 110.14 167.848 109.866 168.187C109.593 168.522 109.218 168.769 108.743 168.929V168.948C108.951 169.013 109.145 169.15 109.324 169.358C109.507 169.567 109.661 169.783 109.788 170.008L110.916 172ZM106.805 166.18V168.206H107.488C107.83 168.206 108.104 168.104 108.309 167.898C108.514 167.693 108.616 167.439 108.616 167.137C108.616 166.818 108.525 166.578 108.343 166.419C108.16 166.259 107.885 166.18 107.518 166.18H106.805Z" fill="white"/>
<path d="M116.937 164.998L114.656 169.51V172H113.079V169.539L110.857 164.998H112.659L113.787 167.61C113.797 167.636 113.815 167.697 113.841 167.791C113.87 167.885 113.906 168.016 113.948 168.182H113.968C113.987 168.064 114.01 167.96 114.036 167.869C114.062 167.778 114.09 167.698 114.119 167.63L115.267 164.998H116.937Z" fill="white"/>
<path d="M77 176.998L75.1494 184H73.4014L72.2393 179.508C72.21 179.391 72.1855 179.267 72.166 179.137C72.1465 179.003 72.1335 178.865 72.127 178.722H72.1074C72.0944 178.881 72.0765 179.026 72.0537 179.156C72.0342 179.286 72.0098 179.404 71.9805 179.508L70.7891 184H68.9678L67.127 176.998H68.8506L69.8369 181.661C69.8597 181.762 69.8776 181.879 69.8906 182.013C69.9069 182.143 69.9199 182.293 69.9297 182.462H69.959C69.9655 182.335 69.9801 182.203 70.0029 182.066C70.029 181.93 70.0615 181.788 70.1006 181.642L71.3701 176.998H73.0596L74.207 181.7C74.2266 181.785 74.2461 181.891 74.2656 182.018C74.2852 182.145 74.3031 182.289 74.3193 182.452H74.3389C74.3454 182.322 74.3568 182.193 74.373 182.066C74.3926 181.936 74.4154 181.804 74.4414 181.671L75.4082 176.998H77Z" fill="white"/>
<path d="M80.8477 184.122C79.8451 184.122 79.028 183.797 78.3965 183.146C77.765 182.491 77.4492 181.64 77.4492 180.592C77.4492 179.485 77.7699 178.59 78.4111 177.906C79.0524 177.223 79.902 176.881 80.96 176.881C81.9593 176.881 82.7666 177.208 83.3818 177.862C84.0003 178.517 84.3096 179.379 84.3096 180.45C84.3096 181.55 83.9889 182.438 83.3477 183.111C82.7096 183.785 81.8763 184.122 80.8477 184.122ZM80.877 182.76C81.4206 182.76 81.8519 182.564 82.1709 182.174C82.4899 181.78 82.6494 181.235 82.6494 180.538C82.6494 179.812 82.4948 179.247 82.1855 178.844C81.8763 178.44 81.4531 178.238 80.916 178.238C80.3626 178.238 79.9232 178.447 79.5977 178.863C79.2721 179.277 79.1094 179.825 79.1094 180.509C79.1094 181.202 79.2721 181.751 79.5977 182.154C79.9232 182.558 80.3496 182.76 80.877 182.76Z" fill="white"/>
<path d="M91.165 184H89.3828L88.4502 182.276C88.3005 181.996 88.1491 181.785 87.9961 181.642C87.8464 181.498 87.6738 181.417 87.4785 181.397H87.0537V184H85.4766V176.998H87.9766C88.8262 176.998 89.4626 177.164 89.8857 177.496C90.3122 177.825 90.5254 178.32 90.5254 178.98C90.5254 179.446 90.3887 179.848 90.1152 180.187C89.8418 180.522 89.4674 180.769 88.9922 180.929V180.948C89.2005 181.013 89.3942 181.15 89.5732 181.358C89.7555 181.567 89.9102 181.783 90.0371 182.008L91.165 184ZM87.0537 178.18V180.206H87.7373C88.0791 180.206 88.3525 180.104 88.5576 179.898C88.7627 179.693 88.8652 179.439 88.8652 179.137C88.8652 178.818 88.7741 178.578 88.5918 178.419C88.4095 178.259 88.1344 178.18 87.7666 178.18H87.0537Z" fill="white"/>
<path d="M97.8057 184H95.8379L93.7969 181.017C93.7773 180.987 93.7513 180.94 93.7188 180.875C93.6895 180.81 93.6536 180.729 93.6113 180.631H93.5869V184H92.0098V176.998H93.5869V180.245H93.6113C93.6309 180.2 93.6569 180.144 93.6895 180.079C93.722 180.014 93.7611 179.939 93.8066 179.854L95.7402 176.998H97.5713L95.1641 180.299L97.8057 184Z" fill="white"/>
<path d="M102.552 178.282H100.081V180.001H102.352V181.28H100.081V184H98.5039V176.998H102.552V178.282Z" fill="white"/>
<path d="M107.879 184H103.709V176.998H105.286V182.721H107.879V184Z" fill="white"/>
<path d="M111.541 184.122C110.538 184.122 109.721 183.797 109.09 183.146C108.458 182.491 108.143 181.64 108.143 180.592C108.143 179.485 108.463 178.59 109.104 177.906C109.746 177.223 110.595 176.881 111.653 176.881C112.653 176.881 113.46 177.208 114.075 177.862C114.694 178.517 115.003 179.379 115.003 180.45C115.003 181.55 114.682 182.438 114.041 183.111C113.403 183.785 112.57 184.122 111.541 184.122ZM111.57 182.76C112.114 182.76 112.545 182.564 112.864 182.174C113.183 181.78 113.343 181.235 113.343 180.538C113.343 179.812 113.188 179.247 112.879 178.844C112.57 178.44 112.146 178.238 111.609 178.238C111.056 178.238 110.617 178.447 110.291 178.863C109.965 179.277 109.803 179.825 109.803 180.509C109.803 181.202 109.965 181.751 110.291 182.154C110.617 182.558 111.043 182.76 111.57 182.76Z" fill="white"/>
<path d="M125.33 176.998L123.479 184H121.731L120.569 179.508C120.54 179.391 120.516 179.267 120.496 179.137C120.477 179.003 120.464 178.865 120.457 178.722H120.438C120.424 178.881 120.407 179.026 120.384 179.156C120.364 179.286 120.34 179.404 120.311 179.508L119.119 184H117.298L115.457 176.998H117.181L118.167 181.661C118.19 181.762 118.208 181.879 118.221 182.013C118.237 182.143 118.25 182.293 118.26 182.462H118.289C118.296 182.335 118.31 182.203 118.333 182.066C118.359 181.93 118.392 181.788 118.431 181.642L119.7 176.998H121.39L122.537 181.7C122.557 181.785 122.576 181.891 122.596 182.018C122.615 182.145 122.633 182.289 122.649 182.452H122.669C122.675 182.322 122.687 182.193 122.703 182.066C122.723 181.936 122.745 181.804 122.771 181.671L123.738 176.998H125.33Z" fill="white"/>
<path d="M130.56 184H128.982V176.998H130.56V184Z" fill="white"/>
<path d="M131.585 183.536L132.239 182.311C132.591 182.519 132.895 182.66 133.152 182.735C133.413 182.807 133.686 182.843 133.973 182.843C134.35 182.843 134.629 182.771 134.808 182.628C134.987 182.481 135.076 182.283 135.076 182.032C135.076 181.791 135.005 181.607 134.861 181.48C134.718 181.35 134.454 181.241 134.07 181.153C133.289 180.974 132.721 180.72 132.366 180.392C132.011 180.063 131.834 179.604 131.834 179.015C131.834 178.422 132.063 177.919 132.522 177.506C132.981 177.089 133.624 176.881 134.451 176.881C134.796 176.881 135.135 176.92 135.467 176.998C135.799 177.076 136.115 177.19 136.414 177.34L135.823 178.585C135.553 178.432 135.299 178.323 135.062 178.258C134.824 178.193 134.603 178.16 134.397 178.16C134.082 178.16 133.836 178.222 133.66 178.346C133.484 178.469 133.396 178.647 133.396 178.878C133.396 179.09 133.476 179.252 133.636 179.366C133.799 179.48 134.088 179.584 134.505 179.679C135.263 179.851 135.812 180.108 136.15 180.45C136.489 180.792 136.658 181.274 136.658 181.896C136.658 182.56 136.424 183.097 135.955 183.507C135.49 183.917 134.812 184.122 133.924 184.122C133.536 184.122 133.131 184.072 132.708 183.971C132.285 183.867 131.91 183.722 131.585 183.536Z" fill="white"/>
<path d="M73.4502 195H71.873V187.998H73.4502V195Z" fill="white"/>
<path d="M81.3457 195H79.7539L76.8682 190.601C76.7835 190.47 76.7119 190.358 76.6533 190.264C76.5947 190.166 76.5492 190.085 76.5166 190.02H76.4971C76.5101 190.143 76.5199 190.299 76.5264 190.488C76.5329 190.677 76.5361 190.898 76.5361 191.152V195H75.0469V187.998H76.7461L79.5244 192.261C79.5863 192.355 79.6465 192.451 79.7051 192.549C79.7669 192.643 79.8239 192.738 79.876 192.832H79.8955C79.8825 192.751 79.8727 192.63 79.8662 192.471C79.8597 192.308 79.8564 192.108 79.8564 191.87V187.998H81.3457V195Z" fill="white"/>
<path d="M87.8594 189.282H85.8623V195H84.2803V189.282H82.293V187.998H87.8594V189.282Z" fill="white"/>
<path d="M93.0059 195H88.8066V187.998H92.8447V189.282H90.3838V190.84H92.6738V192.119H90.3838V193.721H93.0059V195Z" fill="white"/>
<path d="M98.2988 195H94.1289V187.998H95.7061V193.721H98.2988V195Z" fill="white"/>
<path d="M103.416 195H99.2461V187.998H100.823V193.721H103.416V195Z" fill="white"/>
<path d="M105.94 195H104.363V187.998H105.94V195Z" fill="white"/>
<path d="M113.284 194.473C112.959 194.674 112.581 194.834 112.151 194.951C111.725 195.065 111.253 195.122 110.735 195.122C109.629 195.122 108.745 194.831 108.084 194.248C107.426 193.662 107.098 192.783 107.098 191.611C107.098 190.544 107.431 189.655 108.099 188.945C108.769 188.236 109.697 187.881 110.882 187.881C111.321 187.881 111.73 187.918 112.107 187.993C112.485 188.065 112.877 188.184 113.284 188.35L112.791 189.57C112.465 189.44 112.153 189.346 111.854 189.287C111.554 189.229 111.23 189.199 110.882 189.199C110.228 189.199 109.71 189.396 109.329 189.79C108.948 190.181 108.758 190.763 108.758 191.538C108.758 192.316 108.947 192.887 109.324 193.252C109.705 193.617 110.2 193.799 110.809 193.799C110.997 193.799 111.167 193.786 111.316 193.76C111.466 193.734 111.596 193.696 111.707 193.647V192.271H110.306V191.011H113.284V194.473Z" fill="white"/>
<path d="M118.846 195H114.646V187.998H118.685V189.282H116.224V190.84H118.514V192.119H116.224V193.721H118.846V195Z" fill="white"/>
<path d="M126.268 195H124.676L121.79 190.601C121.705 190.47 121.634 190.358 121.575 190.264C121.517 190.166 121.471 190.085 121.438 190.02H121.419C121.432 190.143 121.442 190.299 121.448 190.488C121.455 190.677 121.458 190.898 121.458 191.152V195H119.969V187.998H121.668L124.446 192.261C124.508 192.355 124.568 192.451 124.627 192.549C124.689 192.643 124.746 192.738 124.798 192.832H124.817C124.804 192.751 124.795 192.63 124.788 192.471C124.782 192.308 124.778 192.108 124.778 191.87V187.998H126.268V195Z" fill="white"/>
<path d="M132.781 189.282H130.784V195H129.202V189.282H127.215V187.998H132.781V189.282Z" fill="white"/>
<path d="M555.6 140.536L556.254 139.311C556.605 139.519 556.91 139.66 557.167 139.735C557.427 139.807 557.701 139.843 557.987 139.843C558.365 139.843 558.643 139.771 558.822 139.628C559.001 139.481 559.091 139.283 559.091 139.032C559.091 138.791 559.019 138.607 558.876 138.48C558.733 138.35 558.469 138.241 558.085 138.153C557.304 137.974 556.736 137.72 556.381 137.392C556.026 137.063 555.849 136.604 555.849 136.015C555.849 135.422 556.078 134.919 556.537 134.506C556.996 134.089 557.639 133.881 558.466 133.881C558.811 133.881 559.149 133.92 559.481 133.998C559.813 134.076 560.129 134.19 560.429 134.34L559.838 135.585C559.568 135.432 559.314 135.323 559.076 135.258C558.839 135.193 558.617 135.16 558.412 135.16C558.096 135.16 557.851 135.222 557.675 135.346C557.499 135.469 557.411 135.647 557.411 135.878C557.411 136.09 557.491 136.252 557.65 136.366C557.813 136.48 558.103 136.584 558.52 136.679C559.278 136.851 559.826 137.108 560.165 137.45C560.504 137.792 560.673 138.274 560.673 138.896C560.673 139.56 560.438 140.097 559.97 140.507C559.504 140.917 558.827 141.122 557.938 141.122C557.551 141.122 557.146 141.072 556.723 140.971C556.299 140.867 555.925 140.722 555.6 140.536Z" fill="white"/>
<path d="M569.755 141H568.197V136.811C568.197 136.586 568.202 136.348 568.212 136.098C568.222 135.847 568.236 135.585 568.256 135.312H568.217C568.174 135.526 568.135 135.712 568.1 135.868C568.067 136.021 568.033 136.145 567.997 136.239L566.356 141H565.067L563.397 136.288C563.378 136.223 563.349 136.109 563.31 135.946C563.271 135.784 563.227 135.572 563.178 135.312H563.134C563.157 135.657 563.173 135.98 563.183 136.283C563.192 136.586 563.197 136.868 563.197 137.128V141H561.776V133.998H564.086L565.517 138.148C565.575 138.301 565.622 138.454 565.658 138.607C565.697 138.76 565.733 138.915 565.766 139.071H565.795C565.84 138.896 565.886 138.729 565.932 138.573C565.977 138.417 566.024 138.272 566.073 138.139L567.504 133.998H569.755V141Z" fill="white"/>
<path d="M570.595 141L573.144 133.998H575.014L577.504 141H575.785L575.312 139.54H572.772L572.304 141H570.595ZM573.114 138.31H574.945L574.174 135.878C574.145 135.78 574.12 135.697 574.101 135.629C574.084 135.561 574.07 135.473 574.057 135.365H574.018C574.001 135.463 573.983 135.548 573.964 135.619C573.948 135.691 573.925 135.771 573.896 135.858L573.114 138.31Z" fill="white"/>
<path d="M584.066 141H582.284L581.352 139.276C581.202 138.996 581.05 138.785 580.897 138.642C580.748 138.498 580.575 138.417 580.38 138.397H579.955V141H578.378V133.998H580.878C581.728 133.998 582.364 134.164 582.787 134.496C583.214 134.825 583.427 135.32 583.427 135.98C583.427 136.446 583.29 136.848 583.017 137.187C582.743 137.522 582.369 137.769 581.894 137.929V137.948C582.102 138.013 582.296 138.15 582.475 138.358C582.657 138.567 582.812 138.783 582.938 139.008L584.066 141ZM579.955 135.18V137.206H580.639C580.98 137.206 581.254 137.104 581.459 136.898C581.664 136.693 581.767 136.439 581.767 136.137C581.767 135.818 581.675 135.578 581.493 135.419C581.311 135.259 581.036 135.18 580.668 135.18H579.955Z" fill="white"/>
<path d="M589.628 135.282H587.631V141H586.049V135.282H584.062V133.998H589.628V135.282Z" fill="white"/>
<path d="M594.774 141H590.575V133.998H594.613V135.282H592.152V136.84H594.442V138.119H592.152V139.721H594.774V141Z" fill="white"/>
<path d="M601.586 141H599.804L598.871 139.276C598.721 138.996 598.57 138.785 598.417 138.642C598.267 138.498 598.095 138.417 597.899 138.397H597.475V141H595.897V133.998H598.397C599.247 133.998 599.883 134.164 600.307 134.496C600.733 134.825 600.946 135.32 600.946 135.98C600.946 136.446 600.81 136.848 600.536 137.187C600.263 137.522 599.888 137.769 599.413 137.929V137.948C599.621 138.013 599.815 138.15 599.994 138.358C600.176 138.567 600.331 138.783 600.458 139.008L601.586 141ZM597.475 135.18V137.206H598.158C598.5 137.206 598.773 137.104 598.979 136.898C599.184 136.693 599.286 136.439 599.286 136.137C599.286 135.818 599.195 135.578 599.013 135.419C598.83 135.259 598.555 135.18 598.188 135.18H597.475Z" fill="white"/>
<path d="M555.868 153V145.998H558.417C559.198 145.998 559.799 146.146 560.219 146.442C560.639 146.739 560.849 147.157 560.849 147.697C560.849 148.072 560.736 148.4 560.512 148.684C560.287 148.964 560.001 149.159 559.652 149.27V149.289C560.102 149.348 560.46 149.527 560.727 149.826C560.993 150.122 561.127 150.484 561.127 150.91C561.127 151.551 560.897 152.061 560.438 152.438C559.979 152.813 559.353 153 558.559 153H555.868ZM557.445 147.16V148.869H558.139C558.464 148.869 558.72 148.791 558.905 148.635C559.094 148.479 559.188 148.264 559.188 147.99C559.188 147.714 559.092 147.507 558.9 147.37C558.708 147.23 558.42 147.16 558.036 147.16H557.445ZM557.445 150.041V151.838H558.3C558.664 151.838 558.949 151.753 559.154 151.584C559.363 151.415 559.467 151.184 559.467 150.891C559.467 150.627 559.364 150.42 559.159 150.271C558.957 150.118 558.674 150.041 558.31 150.041H557.445Z" fill="white"/>
<path d="M567.992 149.968C567.992 151.019 567.746 151.809 567.255 152.336C566.767 152.86 566.033 153.122 565.053 153.122C564.102 153.122 563.389 152.867 562.914 152.355C562.439 151.841 562.201 151.065 562.201 150.026V145.998H563.783V150.061C563.783 150.627 563.894 151.052 564.115 151.335C564.337 151.618 564.669 151.76 565.111 151.76C565.548 151.76 565.873 151.623 566.088 151.35C566.306 151.076 566.415 150.666 566.415 150.119V145.998H567.992V149.968Z" fill="white"/>
<path d="M568.949 152.536L569.604 151.311C569.955 151.519 570.259 151.66 570.517 151.735C570.777 151.807 571.05 151.843 571.337 151.843C571.715 151.843 571.993 151.771 572.172 151.628C572.351 151.481 572.44 151.283 572.44 151.032C572.44 150.791 572.369 150.607 572.226 150.48C572.082 150.35 571.819 150.241 571.435 150.153C570.653 149.974 570.085 149.72 569.73 149.392C569.376 149.063 569.198 148.604 569.198 148.015C569.198 147.422 569.428 146.919 569.887 146.506C570.346 146.089 570.989 145.881 571.815 145.881C572.16 145.881 572.499 145.92 572.831 145.998C573.163 146.076 573.479 146.19 573.778 146.34L573.188 147.585C572.917 147.432 572.663 147.323 572.426 147.258C572.188 147.193 571.967 147.16 571.762 147.16C571.446 147.16 571.2 147.222 571.024 147.346C570.849 147.469 570.761 147.647 570.761 147.878C570.761 148.09 570.84 148.252 571 148.366C571.163 148.48 571.452 148.584 571.869 148.679C572.628 148.851 573.176 149.108 573.515 149.45C573.853 149.792 574.022 150.274 574.022 150.896C574.022 151.56 573.788 152.097 573.319 152.507C572.854 152.917 572.177 153.122 571.288 153.122C570.901 153.122 570.495 153.072 570.072 152.971C569.649 152.867 569.275 152.722 568.949 152.536Z" fill="white"/>
<path d="M576.703 153H575.126V145.998H576.703V153Z" fill="white"/>
<path d="M584.599 153H583.007L580.121 148.601C580.036 148.47 579.965 148.358 579.906 148.264C579.848 148.166 579.802 148.085 579.77 148.02H579.75C579.763 148.143 579.773 148.299 579.779 148.488C579.786 148.677 579.789 148.898 579.789 149.152V153H578.3V145.998H579.999L582.777 150.261C582.839 150.355 582.899 150.451 582.958 150.549C583.02 150.643 583.077 150.738 583.129 150.832H583.148C583.135 150.751 583.126 150.63 583.119 150.471C583.113 150.308 583.109 150.108 583.109 149.87V145.998H584.599V153Z" fill="white"/>
<path d="M590.399 153H586.2V145.998H590.238V147.282H587.777V148.84H590.067V150.119H587.777V151.721H590.399V153Z" fill="white"/>
<path d="M590.951 152.536L591.605 151.311C591.957 151.519 592.261 151.66 592.519 151.735C592.779 151.807 593.052 151.843 593.339 151.843C593.716 151.843 593.995 151.771 594.174 151.628C594.353 151.481 594.442 151.283 594.442 151.032C594.442 150.791 594.371 150.607 594.228 150.48C594.084 150.35 593.821 150.241 593.437 150.153C592.655 149.974 592.087 149.72 591.732 149.392C591.378 149.063 591.2 148.604 591.2 148.015C591.2 147.422 591.43 146.919 591.889 146.506C592.348 146.089 592.991 145.881 593.817 145.881C594.162 145.881 594.501 145.92 594.833 145.998C595.165 146.076 595.481 146.19 595.78 146.34L595.189 147.585C594.919 147.432 594.665 147.323 594.428 147.258C594.19 147.193 593.969 147.16 593.764 147.16C593.448 147.16 593.202 147.222 593.026 147.346C592.851 147.469 592.763 147.647 592.763 147.878C592.763 148.09 592.842 148.252 593.002 148.366C593.165 148.48 593.454 148.584 593.871 148.679C594.63 148.851 595.178 149.108 595.517 149.45C595.855 149.792 596.024 150.274 596.024 150.896C596.024 151.56 595.79 152.097 595.321 152.507C594.856 152.917 594.179 153.122 593.29 153.122C592.903 153.122 592.497 153.072 592.074 152.971C591.651 152.867 591.277 152.722 590.951 152.536Z" fill="white"/>
<path d="M596.557 152.536L597.211 151.311C597.562 151.519 597.867 151.66 598.124 151.735C598.384 151.807 598.658 151.843 598.944 151.843C599.322 151.843 599.6 151.771 599.779 151.628C599.958 151.481 600.048 151.283 600.048 151.032C600.048 150.791 599.976 150.607 599.833 150.48C599.69 150.35 599.426 150.241 599.042 150.153C598.261 149.974 597.693 149.72 597.338 149.392C596.983 149.063 596.806 148.604 596.806 148.015C596.806 147.422 597.035 146.919 597.494 146.506C597.953 146.089 598.596 145.881 599.423 145.881C599.768 145.881 600.106 145.92 600.438 145.998C600.771 146.076 601.086 146.19 601.386 146.34L600.795 147.585C600.525 147.432 600.271 147.323 600.033 147.258C599.796 147.193 599.574 147.16 599.369 147.16C599.053 147.16 598.808 147.222 598.632 147.346C598.456 147.469 598.368 147.647 598.368 147.878C598.368 148.09 598.448 148.252 598.607 148.366C598.77 148.48 599.06 148.584 599.477 148.679C600.235 148.851 600.784 149.108 601.122 149.45C601.461 149.792 601.63 150.274 601.63 150.896C601.63 151.56 601.396 152.097 600.927 152.507C600.461 152.917 599.784 153.122 598.896 153.122C598.508 153.122 598.103 153.072 597.68 152.971C597.257 152.867 596.882 152.722 596.557 152.536Z" fill="white"/>
<path d="M554.994 164.122C553.992 164.122 553.174 163.797 552.543 163.146C551.911 162.491 551.596 161.64 551.596 160.592C551.596 159.485 551.916 158.59 552.558 157.906C553.199 157.223 554.049 156.881 555.106 156.881C556.106 156.881 556.913 157.208 557.528 157.862C558.147 158.517 558.456 159.379 558.456 160.45C558.456 161.55 558.135 162.438 557.494 163.111C556.856 163.785 556.023 164.122 554.994 164.122ZM555.023 162.76C555.567 162.76 555.998 162.564 556.317 162.174C556.636 161.78 556.796 161.235 556.796 160.538C556.796 159.812 556.641 159.247 556.332 158.844C556.023 158.44 555.6 158.238 555.062 158.238C554.509 158.238 554.07 158.447 553.744 158.863C553.419 159.277 553.256 159.825 553.256 160.509C553.256 161.202 553.419 161.751 553.744 162.154C554.07 162.558 554.496 162.76 555.023 162.76Z" fill="white"/>
<path d="M565.331 160.968C565.331 162.019 565.085 162.809 564.594 163.336C564.105 163.86 563.371 164.122 562.392 164.122C561.441 164.122 560.728 163.867 560.253 163.355C559.778 162.841 559.54 162.065 559.54 161.026V156.998H561.122V161.061C561.122 161.627 561.233 162.052 561.454 162.335C561.675 162.618 562.007 162.76 562.45 162.76C562.886 162.76 563.212 162.623 563.427 162.35C563.645 162.076 563.754 161.666 563.754 161.119V156.998H565.331V160.968Z" fill="white"/>
<path d="M571.771 158.282H569.774V164H568.192V158.282H566.205V156.998H571.771V158.282Z" fill="white"/>
<path d="M577.631 163.658C577.263 163.821 576.907 163.938 576.562 164.01C576.216 164.085 575.844 164.122 575.443 164.122C574.353 164.122 573.493 163.818 572.865 163.209C572.24 162.597 571.928 161.723 571.928 160.587C571.928 159.522 572.27 158.639 572.953 157.936C573.637 157.232 574.538 156.881 575.658 156.881C576.033 156.881 576.366 156.907 576.659 156.959C576.955 157.011 577.263 157.096 577.582 157.213L577.118 158.487C576.877 158.399 576.646 158.336 576.425 158.297C576.203 158.258 575.964 158.238 575.707 158.238C575.134 158.238 574.638 158.44 574.218 158.844C573.798 159.244 573.588 159.788 573.588 160.475C573.588 161.184 573.77 161.739 574.135 162.14C574.503 162.54 575.006 162.74 575.644 162.74C575.81 162.74 576.02 162.714 576.273 162.662C576.531 162.607 576.796 162.517 577.069 162.394L577.631 163.658Z" fill="white"/>
<path d="M581.439 164.122C580.437 164.122 579.62 163.797 578.988 163.146C578.357 162.491 578.041 161.64 578.041 160.592C578.041 159.485 578.362 158.59 579.003 157.906C579.644 157.223 580.494 156.881 581.552 156.881C582.551 156.881 583.358 157.208 583.974 157.862C584.592 158.517 584.901 159.379 584.901 160.45C584.901 161.55 584.581 162.438 583.939 163.111C583.301 163.785 582.468 164.122 581.439 164.122ZM581.469 162.76C582.012 162.76 582.444 162.564 582.763 162.174C583.082 161.78 583.241 161.235 583.241 160.538C583.241 159.812 583.087 159.247 582.777 158.844C582.468 158.44 582.045 158.238 581.508 158.238C580.954 158.238 580.515 158.447 580.189 158.863C579.864 159.277 579.701 159.825 579.701 160.509C579.701 161.202 579.864 161.751 580.189 162.154C580.515 162.558 580.941 162.76 581.469 162.76Z" fill="white"/>
<path d="M594.047 164H592.489V159.811C592.489 159.586 592.494 159.348 592.504 159.098C592.514 158.847 592.528 158.585 592.548 158.312H592.509C592.466 158.526 592.427 158.712 592.392 158.868C592.359 159.021 592.325 159.145 592.289 159.239L590.648 164H589.359L587.689 159.288C587.67 159.223 587.641 159.109 587.602 158.946C587.562 158.784 587.519 158.572 587.47 158.312H587.426C587.449 158.657 587.465 158.98 587.475 159.283C587.484 159.586 587.489 159.868 587.489 160.128V164H586.068V156.998H588.378L589.809 161.148C589.867 161.301 589.914 161.454 589.95 161.607C589.989 161.76 590.025 161.915 590.058 162.071H590.087C590.132 161.896 590.178 161.729 590.224 161.573C590.269 161.417 590.316 161.272 590.365 161.139L591.796 156.998H594.047V164Z" fill="white"/>
<path d="M599.838 164H595.639V156.998H599.677V158.282H597.216V159.84H599.506V161.119H597.216V162.721H599.838V164Z" fill="white"/>
<path d="M600.39 163.536L601.044 162.311C601.396 162.519 601.7 162.66 601.957 162.735C602.217 162.807 602.491 162.843 602.777 162.843C603.155 162.843 603.433 162.771 603.612 162.628C603.791 162.481 603.881 162.283 603.881 162.032C603.881 161.791 603.809 161.607 603.666 161.48C603.523 161.35 603.259 161.241 602.875 161.153C602.094 160.974 601.526 160.72 601.171 160.392C600.816 160.063 600.639 159.604 600.639 159.015C600.639 158.422 600.868 157.919 601.327 157.506C601.786 157.089 602.429 156.881 603.256 156.881C603.601 156.881 603.939 156.92 604.271 156.998C604.604 157.076 604.919 157.19 605.219 157.34L604.628 158.585C604.358 158.432 604.104 158.323 603.866 158.258C603.629 158.193 603.407 158.16 603.202 158.16C602.886 158.16 602.641 158.222 602.465 158.346C602.289 158.469 602.201 158.647 602.201 158.878C602.201 159.09 602.281 159.252 602.44 159.366C602.603 159.48 602.893 159.584 603.31 159.679C604.068 159.851 604.617 160.108 604.955 160.45C605.294 160.792 605.463 161.274 605.463 161.896C605.463 162.56 605.229 163.097 604.76 163.507C604.294 163.917 603.617 164.122 602.729 164.122C602.341 164.122 601.936 164.072 601.513 163.971C601.09 163.867 600.715 163.722 600.39 163.536Z" fill="white"/>
<path d="M198.063 300H193.864V292.998H197.902V294.282H195.441V295.84H197.731V297.119H195.441V298.721H198.063V300Z" fill="white"/>
<path d="M205.065 292.998L202.653 300H200.866L198.483 292.998H200.183L201.643 297.871C201.682 298.005 201.713 298.13 201.735 298.247C201.758 298.361 201.774 298.468 201.784 298.569H201.813C201.826 298.462 201.844 298.348 201.867 298.228C201.893 298.107 201.926 297.982 201.965 297.852L203.415 292.998H205.065Z" fill="white"/>
<path d="M210.104 300H205.905V292.998H209.943V294.282H207.482V295.84H209.772V297.119H207.482V298.721H210.104V300Z" fill="white"/>
<path d="M216.916 300H215.134L214.201 298.276C214.051 297.996 213.9 297.785 213.747 297.642C213.597 297.498 213.425 297.417 213.229 297.397H212.805V300H211.228V292.998H213.728C214.577 292.998 215.214 293.164 215.637 293.496C216.063 293.825 216.276 294.32 216.276 294.98C216.276 295.446 216.14 295.848 215.866 296.187C215.593 296.522 215.218 296.769 214.743 296.929V296.948C214.951 297.013 215.145 297.15 215.324 297.358C215.507 297.567 215.661 297.783 215.788 298.008L216.916 300ZM212.805 294.18V296.206H213.488C213.83 296.206 214.104 296.104 214.309 295.898C214.514 295.693 214.616 295.439 214.616 295.137C214.616 294.818 214.525 294.578 214.343 294.419C214.16 294.259 213.885 294.18 213.518 294.18H212.805Z" fill="white"/>
<path d="M222.937 292.998L220.656 297.51V300H219.079V297.539L216.857 292.998H218.659L219.787 295.61C219.797 295.636 219.815 295.697 219.841 295.791C219.87 295.885 219.906 296.016 219.948 296.182H219.968C219.987 296.064 220.01 295.96 220.036 295.869C220.062 295.778 220.09 295.698 220.119 295.63L221.267 292.998H222.937Z" fill="white"/>
<path d="M178.21 312H174.011V304.998H178.049V306.282H175.588V307.84H177.878V309.119H175.588V310.721H178.21V312Z" fill="white"/>
<path d="M185.256 312H183.386L182.18 309.72C182.157 309.677 182.134 309.617 182.111 309.539C182.089 309.461 182.064 309.365 182.038 309.251H182.019C182.006 309.303 181.986 309.371 181.96 309.456C181.934 309.537 181.9 309.632 181.857 309.739L180.646 312H178.767L180.998 308.499L178.957 304.998H180.876L181.877 307.098C181.916 307.179 181.952 307.27 181.984 307.371C182.02 307.469 182.054 307.575 182.087 307.688H182.106C182.126 307.62 182.154 307.535 182.189 307.435C182.229 307.33 182.274 307.212 182.326 307.078L183.439 304.998H185.197L183.098 308.47L185.256 312Z" fill="white"/>
<path d="M187.668 309.705V312H186.091V304.998H188.562C189.444 304.998 190.104 305.188 190.544 305.569C190.987 305.95 191.208 306.523 191.208 307.288C191.208 308.011 190.954 308.595 190.446 309.041C189.942 309.484 189.266 309.705 188.42 309.705H187.668ZM187.668 306.209V308.509H188.288C188.708 308.509 189.022 308.413 189.23 308.221C189.442 308.025 189.548 307.734 189.548 307.347C189.548 306.966 189.442 306.681 189.23 306.492C189.022 306.303 188.708 306.209 188.288 306.209H187.668Z" fill="white"/>
<path d="M196.433 312H192.233V304.998H196.271V306.282H193.811V307.84H196.101V309.119H193.811V310.721H196.433V312Z" fill="white"/>
<path d="M203.244 312H201.462L200.529 310.276C200.38 309.996 200.228 309.785 200.075 309.642C199.925 309.498 199.753 309.417 199.558 309.397H199.133V312H197.556V304.998H200.056C200.905 304.998 201.542 305.164 201.965 305.496C202.391 305.825 202.604 306.32 202.604 306.98C202.604 307.446 202.468 307.848 202.194 308.187C201.921 308.522 201.547 308.769 201.071 308.929V308.948C201.28 309.013 201.473 309.15 201.652 309.358C201.835 309.567 201.989 309.783 202.116 310.008L203.244 312ZM199.133 306.18V308.206H199.816C200.158 308.206 200.432 308.104 200.637 307.898C200.842 307.693 200.944 307.439 200.944 307.137C200.944 306.818 200.853 306.578 200.671 306.419C200.489 306.259 200.214 306.18 199.846 306.18H199.133Z" fill="white"/>
<path d="M205.666 312H204.089V304.998H205.666V312Z" fill="white"/>
<path d="M211.462 312H207.263V304.998H211.301V306.282H208.84V307.84H211.13V309.119H208.84V310.721H211.462V312Z" fill="white"/>
<path d="M218.884 312H217.292L214.406 307.601C214.322 307.47 214.25 307.358 214.191 307.264C214.133 307.166 214.087 307.085 214.055 307.02H214.035C214.048 307.143 214.058 307.299 214.064 307.488C214.071 307.677 214.074 307.898 214.074 308.152V312H212.585V304.998H214.284L217.062 309.261C217.124 309.355 217.185 309.451 217.243 309.549C217.305 309.643 217.362 309.738 217.414 309.832H217.434C217.421 309.751 217.411 309.63 217.404 309.471C217.398 309.308 217.395 309.108 217.395 308.87V304.998H218.884V312Z" fill="white"/>
<path d="M225.749 311.658C225.381 311.821 225.025 311.938 224.68 312.01C224.335 312.085 223.962 312.122 223.562 312.122C222.471 312.122 221.612 311.818 220.983 311.209C220.358 310.597 220.046 309.723 220.046 308.587C220.046 307.522 220.388 306.639 221.071 305.936C221.755 305.232 222.657 304.881 223.776 304.881C224.151 304.881 224.484 304.907 224.777 304.959C225.074 305.011 225.381 305.096 225.7 305.213L225.236 306.487C224.995 306.399 224.764 306.336 224.543 306.297C224.322 306.258 224.082 306.238 223.825 306.238C223.252 306.238 222.756 306.44 222.336 306.844C221.916 307.244 221.706 307.788 221.706 308.475C221.706 309.184 221.888 309.739 222.253 310.14C222.621 310.54 223.124 310.74 223.762 310.74C223.928 310.74 224.138 310.714 224.392 310.662C224.649 310.607 224.914 310.517 225.188 310.394L225.749 311.658Z" fill="white"/>
<path d="M230.925 312H226.726V304.998H230.764V306.282H228.303V307.84H230.593V309.119H228.303V310.721H230.925V312Z" fill="white"/>
<path d="M236.389 312H234.812V304.998H236.389V312Z" fill="white"/>
<path d="M237.414 311.536L238.068 310.311C238.42 310.519 238.724 310.66 238.981 310.735C239.242 310.807 239.515 310.843 239.802 310.843C240.179 310.843 240.458 310.771 240.637 310.628C240.816 310.481 240.905 310.283 240.905 310.032C240.905 309.791 240.834 309.607 240.69 309.48C240.547 309.35 240.284 309.241 239.899 309.153C239.118 308.974 238.55 308.72 238.195 308.392C237.84 308.063 237.663 307.604 237.663 307.015C237.663 306.422 237.893 305.919 238.352 305.506C238.811 305.089 239.453 304.881 240.28 304.881C240.625 304.881 240.964 304.92 241.296 304.998C241.628 305.076 241.944 305.19 242.243 305.34L241.652 306.585C241.382 306.432 241.128 306.323 240.891 306.258C240.653 306.193 240.432 306.16 240.227 306.16C239.911 306.16 239.665 306.222 239.489 306.346C239.313 306.469 239.226 306.647 239.226 306.878C239.226 307.09 239.305 307.252 239.465 307.366C239.628 307.48 239.917 307.584 240.334 307.679C241.092 307.851 241.641 308.108 241.979 308.45C242.318 308.792 242.487 309.274 242.487 309.896C242.487 310.56 242.253 311.097 241.784 311.507C241.319 311.917 240.642 312.122 239.753 312.122C239.366 312.122 238.96 312.072 238.537 311.971C238.114 311.867 237.74 311.722 237.414 311.536Z" fill="white"/>
<path d="M184.255 322.658C183.887 322.821 183.531 322.938 183.186 323.01C182.84 323.085 182.468 323.122 182.067 323.122C180.977 323.122 180.118 322.818 179.489 322.209C178.864 321.597 178.552 320.723 178.552 319.587C178.552 318.522 178.894 317.639 179.577 316.936C180.261 316.232 181.162 315.881 182.282 315.881C182.657 315.881 182.99 315.907 183.283 315.959C183.579 316.011 183.887 316.096 184.206 316.213L183.742 317.487C183.501 317.399 183.27 317.336 183.049 317.297C182.827 317.258 182.588 317.238 182.331 317.238C181.758 317.238 181.262 317.44 180.842 317.844C180.422 318.244 180.212 318.788 180.212 319.475C180.212 320.184 180.394 320.739 180.759 321.14C181.127 321.54 181.63 321.74 182.268 321.74C182.434 321.74 182.644 321.714 182.897 321.662C183.155 321.607 183.42 321.517 183.693 321.394L184.255 322.658Z" fill="white"/>
<path d="M188.063 323.122C187.061 323.122 186.244 322.797 185.612 322.146C184.981 321.491 184.665 320.64 184.665 319.592C184.665 318.485 184.986 317.59 185.627 316.906C186.268 316.223 187.118 315.881 188.176 315.881C189.175 315.881 189.982 316.208 190.598 316.862C191.216 317.517 191.525 318.379 191.525 319.45C191.525 320.55 191.205 321.438 190.563 322.111C189.925 322.785 189.092 323.122 188.063 323.122ZM188.093 321.76C188.636 321.76 189.068 321.564 189.387 321.174C189.706 320.78 189.865 320.235 189.865 319.538C189.865 318.812 189.711 318.247 189.401 317.844C189.092 317.44 188.669 317.238 188.132 317.238C187.578 317.238 187.139 317.447 186.813 317.863C186.488 318.277 186.325 318.825 186.325 319.509C186.325 320.202 186.488 320.751 186.813 321.154C187.139 321.558 187.565 321.76 188.093 321.76Z" fill="white"/>
<path d="M198.991 323H197.399L194.514 318.601C194.429 318.47 194.357 318.358 194.299 318.264C194.24 318.166 194.195 318.085 194.162 318.02H194.143C194.156 318.143 194.165 318.299 194.172 318.488C194.178 318.677 194.182 318.898 194.182 319.152V323H192.692V315.998H194.392L197.17 320.261C197.232 320.355 197.292 320.451 197.351 320.549C197.412 320.643 197.469 320.738 197.521 320.832H197.541C197.528 320.751 197.518 320.63 197.512 320.471C197.505 320.308 197.502 320.108 197.502 319.87V315.998H198.991V323Z" fill="white"/>
<path d="M206.892 323H205.3L202.414 318.601C202.329 318.47 202.258 318.358 202.199 318.264C202.141 318.166 202.095 318.085 202.062 318.02H202.043C202.056 318.143 202.066 318.299 202.072 318.488C202.079 318.677 202.082 318.898 202.082 319.152V323H200.593V315.998H202.292L205.07 320.261C205.132 320.355 205.192 320.451 205.251 320.549C205.313 320.643 205.37 320.738 205.422 320.832H205.441C205.428 320.751 205.419 320.63 205.412 320.471C205.406 320.308 205.402 320.108 205.402 319.87V315.998H206.892V323Z" fill="white"/>
<path d="M212.692 323H208.493V315.998H212.531V317.282H210.07V318.84H212.36V320.119H210.07V321.721H212.692V323Z" fill="white"/>
<path d="M219.079 322.658C218.711 322.821 218.355 322.938 218.01 323.01C217.665 323.085 217.292 323.122 216.892 323.122C215.801 323.122 214.942 322.818 214.313 322.209C213.688 321.597 213.376 320.723 213.376 319.587C213.376 318.522 213.718 317.639 214.401 316.936C215.085 316.232 215.987 315.881 217.106 315.881C217.481 315.881 217.814 315.907 218.107 315.959C218.404 316.011 218.711 316.096 219.03 316.213L218.566 317.487C218.326 317.399 218.094 317.336 217.873 317.297C217.652 317.258 217.412 317.238 217.155 317.238C216.582 317.238 216.086 317.44 215.666 317.844C215.246 318.244 215.036 318.788 215.036 319.475C215.036 320.184 215.218 320.739 215.583 321.14C215.951 321.54 216.454 321.74 217.092 321.74C217.258 321.74 217.468 321.714 217.722 321.662C217.979 321.607 218.244 321.517 218.518 321.394L219.079 322.658Z" fill="white"/>
<path d="M224.968 317.282H222.971V323H221.389V317.282H219.401V315.998H224.968V317.282Z" fill="white"/>
<path d="M230.114 323H225.915V315.998H229.953V317.282H227.492V318.84H229.782V320.119H227.492V321.721H230.114V323Z" fill="white"/>
<path d="M231.237 323V315.998H233.718C234.961 315.998 235.894 316.283 236.516 316.853C237.137 317.419 237.448 318.272 237.448 319.411C237.448 320.502 237.108 321.372 236.428 322.023C235.751 322.674 234.847 323 233.718 323H231.237ZM232.814 317.282V321.721H233.596C234.279 321.721 234.815 321.516 235.202 321.105C235.593 320.695 235.788 320.137 235.788 319.431C235.788 318.763 235.594 318.239 235.207 317.858C234.823 317.474 234.283 317.282 233.586 317.282H232.814Z" fill="white"/>
</svg>
