<svg width="538" height="515" viewBox="0 0 538 515" fill="none" xmlns="http://www.w3.org/2000/svg">
<circle cx="257.5" cy="257.5" r="257.5" fill="#0089A0"/>
<circle cx="257.5" cy="257.5" r="257.5" fill="url(#paint0_linear_106_126)"/>
<circle cx="280.5" cy="257.5" r="253" fill="url(#paint1_linear_106_126)" stroke="white" stroke-width="9"/>
<path d="M429.25 287.167C429.25 279.146 422.688 272.583 414.667 272.583H385.5V301.75H414.667C422.688 301.75 429.25 295.188 429.25 287.167ZM414.667 330.917H385.5V360.083H414.667C422.688 360.083 429.25 353.521 429.25 345.5C429.25 337.479 422.688 330.917 414.667 330.917ZM298 287.167H268.833V345.5H298C298 361.542 311.125 374.667 327.167 374.667H370.917V258H327.167C311.125 258 298 271.125 298 287.167Z" fill="white"/>
<path d="M195.917 272.583C195.917 256.542 209.042 243.417 225.083 243.417H246.958C275.104 243.417 298 220.521 298 192.375C298 164.229 275.104 141.333 246.958 141.333H195.917C187.896 141.333 181.333 147.896 181.333 155.917C181.333 163.938 187.896 170.5 195.917 170.5H246.958C259.062 170.5 268.833 180.271 268.833 192.375C268.833 204.479 259.062 214.25 246.958 214.25H225.083C192.854 214.25 166.75 240.354 166.75 272.583C166.75 304.813 192.854 330.917 225.083 330.917H254.25V301.75H225.083C209.042 301.75 195.917 288.625 195.917 272.583Z" fill="white"/>
<defs>
<linearGradient id="paint0_linear_106_126" x1="93.5" y1="174.5" x2="460" y2="388" gradientUnits="userSpaceOnUse">
<stop stop-color="#111728"/>
<stop offset="1" stop-color="#2A3D6F"/>
</linearGradient>
<linearGradient id="paint1_linear_106_126" x1="116.5" y1="174.5" x2="483" y2="388" gradientUnits="userSpaceOnUse">
<stop stop-color="#111728"/>
<stop offset="1" stop-color="#2A3D6F"/>
</linearGradient>
</defs>
</svg>
