<svg width="512" height="512" viewBox="0 0 512 512" fill="none" xmlns="http://www.w3.org/2000/svg">
<path d="M140.764 472.315L122.66 440.817L131.538 435.712L142.177 454.21L155.878 437.161L163.855 443.576L140.764 472.315Z" fill="white"/>
<path d="M136.878 454.538H147.118V462.218H136.878V454.538Z" fill="white"/>
<path d="M136.878 454.538V454.487H147.118L136.878 454.538Z" fill="white"/>
<path d="M147.118 438.84H136.878V423.091H147.118L136.878 423.142H147.118V438.84ZM136.878 407.506V391.706H147.118L136.878 391.757H147.118V407.45L136.878 407.506ZM136.878 376.115V360.315H147.118L136.878 360.366H147.118V376.059L136.878 376.115ZM136.878 344.725V328.924H147.118L136.878 328.975H147.118V344.668L136.878 344.725ZM136.878 313.334V297.539H147.118L136.878 297.59H147.118V313.283L136.878 313.334ZM136.878 281.943V266.148H147.118L136.878 266.199H147.118V281.892L136.878 281.943ZM136.878 250.557V234.757H147.118L136.878 234.808H147.118V250.501L136.878 250.557ZM136.878 219.167V203.366H147.118L136.878 203.418H147.118V219.11L136.878 219.167ZM136.878 187.776V170.685L138.839 168.668L143.083 172.764L138.895 168.617L138.931 168.581L143.114 172.764H147.118V187.725L136.878 187.776ZM157.128 164.567L149.683 157.537L149.719 157.501L153.462 160.993L149.796 157.42L160.747 146.176L166.753 152.028L160.794 146.13L160.829 146.094L168.079 153.324L157.128 164.567ZM179.031 142.08L171.587 135.05L171.622 135.014L175.365 138.506L171.699 134.932L182.651 123.689L188.662 129.546L182.697 123.643L182.733 123.607L189.983 130.836L179.031 142.08ZM200.883 119.639L193.597 112.445L204.549 101.202L210.591 107.085L204.595 101.151L204.631 101.115L211.881 108.344L200.929 119.588L197.263 116.014L200.883 119.639ZM222.781 97.152L215.496 89.9584L226.447 78.7149L232.489 84.5978L226.493 78.6637L226.529 78.6279L233.779 85.8573L222.827 97.1008L219.162 93.5271L222.781 97.152ZM244.685 74.665L237.409 67.4611L237.445 67.4253L244.685 74.665Z" fill="white"/>
<path d="M244.731 74.6138L237.394 67.4714L244.26 60.4211H254.1V70.6611H248.581L244.731 74.6138Z" fill="white"/>
<path d="M254.152 70.6611L254.1 60.4211H254.152V70.6611Z" fill="white"/>
<path d="M392.842 70.6611L392.791 60.4211H392.842V70.6611ZM377.477 70.6611L377.426 60.4211H377.477V70.6611ZM377.426 70.6611H362.01V60.4211H377.426V70.6611ZM362.01 70.6611L361.958 60.4211H362.01V70.6611ZM346.644 70.6611L346.593 60.4211H346.644V70.6611ZM346.593 70.6611H331.177V60.4211H346.593V70.6611ZM331.177 70.6611L331.126 60.4211H331.177V70.6611ZM315.812 70.6611L315.761 60.4211H315.812V70.6611ZM315.761 70.6611H300.344V60.4211H315.761V70.6611ZM300.344 70.6611L300.293 60.4211H300.344V70.6611ZM284.984 70.6611L284.933 60.4211H284.984V70.6611ZM284.928 70.6611H269.517V60.4211H284.933L284.928 70.6611Z" fill="white"/>
<path d="M392.842 60.4211H400.522V70.6611H392.842V60.4211Z" fill="white"/>
</svg>
