<svg width="77" height="122" viewBox="0 0 77 122" fill="none" xmlns="http://www.w3.org/2000/svg">
<path d="M60.1881 91.9642C60.1881 93.2944 59.6596 94.5702 58.719 95.5108C57.7784 96.4514 56.5027 96.9798 55.1724 96.9798H21.7349C20.4047 96.9798 19.129 96.4514 18.1884 95.5108C17.2477 94.5702 16.7193 93.2944 16.7193 91.9642C16.7193 90.634 17.2477 89.3582 18.1884 88.4176C19.129 87.477 20.4047 86.9486 21.7349 86.9486H55.1724C56.5027 86.9486 57.7784 87.477 58.719 88.4176C59.6596 89.3582 60.1881 90.634 60.1881 91.9642ZM76.9068 38.4642C76.9221 44.2915 75.6056 50.0453 73.058 55.2862C70.5103 60.5271 66.7988 65.1166 62.2069 68.7043C61.585 69.178 61.0797 69.7878 60.7298 70.4869C60.3799 71.186 60.1946 71.9559 60.1881 72.7377V73.5736C60.1881 75.7906 59.3073 77.9169 57.7397 79.4846C56.172 81.0523 54.0457 81.933 51.8287 81.933H25.0787C22.8616 81.933 20.7354 81.0523 19.1677 79.4846C17.6 77.9169 16.7193 75.7906 16.7193 73.5736V72.7377C16.7184 71.9689 16.5408 71.2106 16.2002 70.5214C15.8595 69.8321 15.365 69.2305 14.7549 68.7628C10.1755 65.1958 6.46737 60.634 3.9112 55.4224C1.35504 50.2109 0.0177584 44.4862 0.000564181 38.6816C-0.112287 17.8542 16.7193 0.512659 37.53 0.011097C42.6569 -0.112097 47.7567 0.791505 52.5292 2.66872C57.3017 4.54594 61.6504 7.35885 65.3196 10.9419C68.9887 14.5249 71.904 18.8057 73.894 23.5323C75.8839 28.2589 76.9083 33.3358 76.9068 38.4642ZM66.8756 38.4642C66.8767 34.6731 66.1193 30.92 64.648 27.426C63.1768 23.9319 61.0213 20.7675 58.3087 18.1191C55.596 15.4707 52.3808 13.3917 48.8525 12.0046C45.3242 10.6175 41.5541 9.95035 37.764 10.0423C22.387 10.4102 9.94822 23.2293 10.0318 38.623C10.0461 42.9132 11.0357 47.144 12.9256 50.9955C14.8155 54.847 17.5563 58.2184 20.9408 60.8548C22.6459 62.1708 24.0474 63.8387 25.0499 65.7449C26.0525 67.6512 26.6325 69.7511 26.7506 71.9017H50.1986C50.319 69.7469 50.8999 67.6429 51.902 65.7316C52.9042 63.8202 54.3045 62.1459 56.0084 60.8214C59.4026 58.1683 62.146 54.775 64.0293 50.9004C65.9127 47.0258 66.8862 42.7723 66.8756 38.4642Z" fill="black"/>
<path d="M58.719 110.062C59.6596 109.122 60.1881 107.846 60.1881 106.516C60.1881 105.185 59.6596 103.91 58.719 102.969C57.7784 102.028 56.5027 101.5 55.1724 101.5H21.7349C20.4047 101.5 19.129 102.028 18.1884 102.969C17.2477 103.91 16.7193 105.185 16.7193 106.516C16.7193 107.846 17.2477 109.122 18.1884 110.062C19.129 111.003 20.4047 111.531 21.7349 111.531H55.1724C56.5027 111.531 57.7784 111.003 58.719 110.062Z" fill="black"/>
<path d="M30 115H46.5018L45.9809 117.25C45.6697 118.598 44.9109 119.801 43.8282 120.662C42.7455 121.524 41.4029 121.993 40.0193 121.993H36.4826C35.0987 121.993 33.7556 121.524 32.6725 120.663C31.5895 119.802 30.8304 118.598 30.5192 117.25L30 115Z" fill="black"/>
</svg>
