<svg width="82" height="78" xmlns="http://www.w3.org/2000/svg" xmlns:xlink="http://www.w3.org/1999/xlink" xml:space="preserve" overflow="hidden"><defs><clipPath id="clip0"><rect x="689" y="538" width="82" height="78"/></clipPath><clipPath id="clip1"><rect x="698" y="538" width="73" height="78"/></clipPath></defs><g clip-path="url(#clip0)" transform="translate(-689 -538)"><g clip-path="url(#clip1)"><g><path d="M45.9999 19.5052 30.6413 19.5052C28.8839 19.5052 27.4546 18.0759 27.4546 16.3185L27.4546 7.39173C27.4546 5.63436 28.8839 4.205 30.6413 4.205L45.9999 4.205C47.7572 4.205 49.1866 5.63436 49.1866 7.39173L49.1866 16.3185C49.1866 18.0759 47.758 19.5052 45.9999 19.5052ZM30.6413 5.66279C29.6879 5.66279 28.9124 6.43833 28.9124 7.39173L28.9124 16.3185C28.9124 17.2719 29.6879 18.0474 30.6413 18.0474L45.9999 18.0474C46.9533 18.0474 47.7288 17.2719 47.7288 16.3185L47.7288 7.39173C47.7288 6.43833 46.9533 5.66279 45.9999 5.66279Z" fill="#A9B4C2" transform="matrix(1 0 0 1.0016 698.111 538)"/><path d="M44.3008 10.558 32.3404 10.558C31.9373 10.558 31.6115 10.2322 31.6115 9.82915 31.6115 9.42607 31.9373 9.10026 32.3404 9.10026L44.3008 9.10026C44.7039 9.10026 45.0297 9.42607 45.0297 9.82915 45.0297 10.2322 44.7039 10.558 44.3008 10.558Z" fill="#A9B4C2" transform="matrix(1 0 0 1.0016 698.111 538)"/><path d="M38.7736 14.6092 32.3404 14.6092C31.9373 14.6092 31.6115 14.2834 31.6115 13.8804 31.6115 13.4773 31.9373 13.1515 32.3404 13.1515L38.7736 13.1515C39.1767 13.1515 39.5025 13.4773 39.5025 13.8804 39.5025 14.2834 39.1767 14.6092 38.7736 14.6092Z" fill="#A9B4C2" transform="matrix(1 0 0 1.0016 698.111 538)"/><path d="M44.3008 14.6092 43.1229 14.6092C42.7198 14.6092 42.394 14.2834 42.394 13.8804 42.394 13.4773 42.7198 13.1515 43.1229 13.1515L44.3008 13.1515C44.7039 13.1515 45.0297 13.4773 45.0297 13.8804 45.0297 14.2834 44.7039 14.6092 44.3008 14.6092Z" fill="#A9B4C2" transform="matrix(1 0 0 1.0016 698.111 538)"/><path d="M26.1783 45.4627 10.8197 45.4627C9.06236 45.4627 7.63299 44.0333 7.63299 42.2759L7.63299 33.3491C7.63299 31.5918 9.06236 30.1624 10.8197 30.1624L26.1783 30.1624C27.9356 30.1624 29.365 31.5918 29.365 33.3491L29.365 42.2759C29.365 44.0333 27.9356 45.4627 26.1783 45.4627ZM10.8197 31.6202C9.86633 31.6202 9.09078 32.3958 9.09078 33.3491L9.09078 42.2759C9.09078 43.2293 9.86633 44.0049 10.8197 44.0049L26.1783 44.0049C27.1317 44.0049 27.9072 43.2293 27.9072 42.2759L27.9072 33.3491C27.9072 32.3958 27.1317 31.6202 26.1783 31.6202Z" fill="#A9B4C2" transform="matrix(1 0 0 1.0016 698.111 538)"/><path d="M24.4792 36.5162 12.5188 36.5162C12.1164 36.5162 11.7899 36.1904 11.7899 35.7873 11.7899 35.3842 12.1164 35.0584 12.5188 35.0584L24.4792 35.0584C24.8823 35.0584 25.2081 35.3842 25.2081 35.7873 25.2081 36.1904 24.8823 36.5162 24.4792 36.5162Z" fill="#A9B4C2" transform="matrix(1 0 0 1.0016 698.111 538)"/><path d="M18.952 40.5667 12.5188 40.5667C12.1164 40.5667 11.7899 40.2409 11.7899 39.8378 11.7899 39.4347 12.1164 39.1089 12.5188 39.1089L18.952 39.1089C19.3551 39.1089 19.6809 39.4347 19.6809 39.8378 19.6809 40.2409 19.3551 40.5667 18.952 40.5667Z" fill="#A9B4C2" transform="matrix(1 0 0 1.0016 698.111 538)"/><path d="M24.4792 40.5667 23.3013 40.5667C22.8982 40.5667 22.5724 40.2409 22.5724 39.8378 22.5724 39.4347 22.8982 39.1089 23.3013 39.1089L24.4792 39.1089C24.8823 39.1089 25.2081 39.4347 25.2081 39.8378 25.2081 40.2409 24.8823 40.5667 24.4792 40.5667Z" fill="#A9B4C2" transform="matrix(1 0 0 1.0016 698.111 538)"/><path d="M26.1783 68.0745 10.8197 68.0745C9.06236 68.0745 7.63299 66.6451 7.63299 64.8877L7.63299 55.9602C7.63299 54.2028 9.06236 52.7728 10.8197 52.7728L26.1783 52.7728C27.9356 52.7728 29.365 54.2028 29.365 55.9602L29.365 64.887C29.365 66.6451 27.9356 68.0745 26.1783 68.0745ZM10.8197 54.2305C9.86633 54.2305 9.09078 55.0061 9.09078 55.9602L9.09078 64.887C9.09078 65.8404 9.86633 66.6159 10.8197 66.6159L26.1783 66.6159C27.1317 66.6159 27.9072 65.8404 27.9072 64.887L27.9072 55.9602C27.9072 55.0061 27.1317 54.2305 26.1783 54.2305Z" fill="#A9B4C2" transform="matrix(1 0 0 1.0016 698.111 538)"/><path d="M24.4792 59.1273 12.5188 59.1273C12.1164 59.1273 11.7899 58.8014 11.7899 58.3984 11.7899 57.9953 12.1164 57.6695 12.5188 57.6695L24.4792 57.6695C24.8823 57.6695 25.2081 57.9953 25.2081 58.3984 25.2081 58.8014 24.8823 59.1273 24.4792 59.1273Z" fill="#A9B4C2" transform="matrix(1 0 0 1.0016 698.111 538)"/><path d="M18.952 63.1785 12.5188 63.1785C12.1164 63.1785 11.7899 62.8526 11.7899 62.4496 11.7899 62.0465 12.1164 61.7207 12.5188 61.7207L18.952 61.7207C19.3551 61.7207 19.6809 62.0465 19.6809 62.4496 19.6809 62.8526 19.3551 63.1785 18.952 63.1785Z" fill="#A9B4C2" transform="matrix(1 0 0 1.0016 698.111 538)"/><path d="M24.4792 63.1785 23.3013 63.1785C22.8982 63.1785 22.5724 62.8526 22.5724 62.4496 22.5724 62.0465 22.8982 61.7207 23.3013 61.7207L24.4792 61.7207C24.8823 61.7207 25.2081 62.0465 25.2081 62.4496 25.2081 62.8526 24.8823 63.1785 24.4792 63.1785Z" fill="#A9B4C2" transform="matrix(1 0 0 1.0016 698.111 538)"/><path d="M38.7736 38.5411 33.2668 38.5411C32.8637 38.5411 32.5379 38.2153 32.5379 37.8122 32.5379 37.4091 32.8637 37.0833 33.2668 37.0833L38.0447 37.0833 38.0447 21.7415C38.0447 21.3384 38.3705 21.0126 38.7736 21.0126 39.1767 21.0126 39.5025 21.3384 39.5025 21.7415L39.5025 37.8122C39.5025 38.2153 39.1767 38.5411 38.7736 38.5411Z" fill="#A9B4C2" transform="matrix(1 0 0 1.0016 698.111 538)"/><path d="M18.4994 51.3711C18.0963 51.3711 17.7705 51.0453 17.7705 50.6422L17.7705 47.8257C17.7705 47.4227 18.0963 47.0968 18.4994 47.0968 18.9024 47.0968 19.2283 47.4227 19.2283 47.8257L19.2283 50.6422C19.2283 51.0445 18.9024 51.3711 18.4994 51.3711Z" fill="#A9B4C2" transform="matrix(1 0 0 1.0016 698.111 538)"/><path d="M45.7579 61.1521 32.3404 61.1521C31.9373 61.1521 31.6115 60.8263 31.6115 60.4232 31.6115 60.0202 31.9373 59.6943 32.3404 59.6943L45.7579 59.6943C46.1609 59.6943 46.4868 60.0202 46.4868 60.4232 46.4868 60.8263 46.1609 61.1521 45.7579 61.1521Z" fill="#A9B4C2" transform="matrix(1 0 0 1.0016 698.111 538)"/><path d="M56.9923 68.6845C52.4389 68.6845 48.7339 64.9774 48.7339 60.4203 48.7339 55.8669 52.4389 52.1619 56.9923 52.1619 61.5494 52.1619 65.2565 55.8669 65.2565 60.4203 65.2565 64.9781 61.5494 68.6845 56.9923 68.6845ZM56.9923 53.6197C53.2422 53.6197 50.1917 56.6709 50.1917 60.4203 50.1917 64.1734 53.2429 67.2268 56.9923 67.2268 60.7454 67.2268 63.7988 64.1741 63.7988 60.4203 63.7988 56.6709 60.7461 53.6197 56.9923 53.6197Z" fill="#A9B4C2" transform="matrix(1 0 0 1.0016 698.111 538)"/><path d="M54.0155 64.1319C53.8289 64.1319 53.6423 64.0605 53.5002 63.9184 53.2152 63.6334 53.2152 63.1727 53.5002 62.8877L59.4596 56.9283C59.7446 56.6433 60.2053 56.6433 60.4903 56.9283 60.7753 57.2133 60.7753 57.6739 60.4903 57.9589L54.5309 63.9184C54.388 64.0605 54.2021 64.1319 54.0155 64.1319Z" fill="#A9B4C2" transform="matrix(1 0 0 1.0016 698.111 538)"/><path d="M59.9742 64.1319C59.7876 64.1319 59.601 64.0605 59.4589 63.9184L53.4995 57.9589C53.2145 57.6739 53.2145 57.2133 53.4995 56.9283 53.7845 56.6433 54.2451 56.6433 54.5301 56.9283L60.4896 62.8877C60.7746 63.1727 60.7746 63.6334 60.4896 63.9184 60.3474 64.0605 60.1608 64.1319 59.9742 64.1319Z" fill="#A9B4C2" transform="matrix(1 0 0 1.0016 698.111 538)"/><text fill="#A9B4C2" font-family="Helvetica,Helvetica_MSFontService,sans-serif" font-weight="700" font-size="5" transform="matrix(0.728895 0 0 0.730064 698.111 622)">Created by Soapi</text><text fill="#A9B4C2" font-family="Helvetica,Helvetica_MSFontService,sans-serif" font-weight="700" font-size="5" transform="matrix(0.728895 0 0 0.730064 698.111 626)">from the Noun Project</text></g></g></g></svg>