<svg width="538" height="515" viewBox="0 0 538 515" fill="none" xmlns="http://www.w3.org/2000/svg">
<circle cx="257.5" cy="257.5" r="257.5" fill="url(#paint0_linear_106_132)"/>
<circle cx="280.5" cy="257.5" r="253" fill="#0089A0"/>
<circle cx="280.5" cy="257.5" r="253" fill="url(#paint1_linear_106_132)"/>
<circle cx="280.5" cy="257.5" r="253" stroke="white" stroke-width="9"/>
<path fill-rule="evenodd" clip-rule="evenodd" d="M314.456 141.716C314.456 136.801 318.432 132.807 323.347 132.807H352.298C357.213 132.807 361.207 136.783 361.207 141.716V175.636H396.266C401.181 175.636 405.157 179.63 405.157 184.546V213.496C405.157 218.411 401.181 222.387 396.266 222.387H361.207V257.446C361.207 259.809 360.268 262.075 358.598 263.746C356.927 265.416 354.661 266.355 352.298 266.355H323.329C320.985 266.341 318.741 265.403 317.084 263.746C315.426 262.088 314.489 259.844 314.474 257.5V222.441H280.5C278.137 222.441 275.871 221.503 274.2 219.832C272.529 218.161 271.591 215.895 271.591 213.532V184.564C271.591 179.648 275.567 175.654 280.5 175.654H314.456V141.716ZM311.113 381.922C300.194 383.087 289.206 380.478 279.976 374.531C233.877 343.468 194.207 303.798 163.144 257.699C157.313 248.372 154.857 237.328 156.186 226.409C157.514 215.49 162.548 205.358 170.445 197.702L177.222 190.925C180.256 187.926 184.35 186.245 188.616 186.245C192.882 186.245 196.976 187.926 200.01 190.925L227.442 219.423C230.43 222.427 232.107 226.491 232.107 230.727C232.107 234.963 230.43 239.027 227.442 242.031C224.438 245.066 222.753 249.164 222.753 253.434C222.753 257.704 224.438 261.802 227.442 264.837L272.856 310.25C275.89 313.249 279.984 314.93 284.25 314.93C288.516 314.93 292.61 313.249 295.644 310.25C298.648 307.258 302.716 305.577 306.957 305.577C311.197 305.577 315.265 307.258 318.269 310.25L346.768 338.568C349.766 341.603 351.448 345.697 351.448 349.962C351.448 354.228 349.766 358.322 346.768 361.356L339.991 368.115C332.225 375.881 322.034 380.754 311.113 381.922Z" fill="white"/>
<defs>
<linearGradient id="paint0_linear_106_132" x1="93.5" y1="174.5" x2="460" y2="388" gradientUnits="userSpaceOnUse">
<stop stop-color="#111728"/>
<stop offset="1" stop-color="#2A3D6F"/>
</linearGradient>
<linearGradient id="paint1_linear_106_132" x1="116.5" y1="174.5" x2="483" y2="388" gradientUnits="userSpaceOnUse">
<stop stop-color="#111728"/>
<stop offset="1" stop-color="#2A3D6F"/>
</linearGradient>
</defs>
</svg>
