<svg width="538" height="515" viewBox="0 0 538 515" fill="none" xmlns="http://www.w3.org/2000/svg">
<circle cx="257.5" cy="257.5" r="257.5" fill="url(#paint0_linear_184_93)"/>
<circle cx="280.5" cy="257.5" r="253" fill="#0089A0"/>
<circle cx="280.5" cy="257.5" r="253" fill="url(#paint1_linear_184_93)"/>
<circle cx="280.5" cy="257.5" r="253" stroke="white" stroke-width="9"/>
<g clip-path="url(#clip0_184_93)">
<path d="M404.563 224.146C395.518 199.409 365.969 191.232 345.594 204.771L318.299 182.11C325.676 158.156 308.441 131.805 281.645 131.028C254.05 130.228 235.004 157.093 242.694 182.078L215.38 204.754C194.383 190.801 164.081 200.063 155.901 225.708C148.345 249.399 164.276 272.618 186.613 276.637L197.181 314.556C178.31 330.804 178.768 362.056 200.872 377.072C222.769 391.948 251.705 381.239 260.216 358.193H300.718C309.537 382.344 340.262 392.451 361.897 375.749C382.735 359.664 381.698 329.087 362.756 313.736L373.666 276.761C397.086 273.029 413.4 248.313 404.563 224.145M299.078 336.455H261.884C257.729 316.033 237.711 302.189 217.177 305.338L208.535 274.325C229.522 265.881 238.761 241.184 229.547 221.247L254.589 200.458C269.197 213.165 291.637 213.322 306.384 200.475L331.447 221.283C322.257 241.165 331.484 265.438 351.798 274.056L342.618 305.165C322.294 302.627 303.158 316.625 299.078 336.455Z" fill="white"/>
</g>
<defs>
<linearGradient id="paint0_linear_184_93" x1="93.5" y1="174.5" x2="460" y2="388" gradientUnits="userSpaceOnUse">
<stop stop-color="#111728"/>
<stop offset="1" stop-color="#2A3D6F"/>
</linearGradient>
<linearGradient id="paint1_linear_184_93" x1="116.5" y1="174.5" x2="483" y2="388" gradientUnits="userSpaceOnUse">
<stop stop-color="#111728"/>
<stop offset="1" stop-color="#2A3D6F"/>
</linearGradient>
<clipPath id="clip0_184_93">
<rect width="253" height="253" fill="white" transform="translate(154 131)"/>
</clipPath>
</defs>
</svg>
