<svg width="80" height="74" xmlns="http://www.w3.org/2000/svg" xmlns:xlink="http://www.w3.org/1999/xlink" xml:space="preserve" overflow="hidden"><defs><clipPath id="clip0"><rect x="441" y="376" width="80" height="74"/></clipPath><clipPath id="clip1"><rect x="442" y="376" width="79" height="74"/></clipPath></defs><g clip-path="url(#clip0)" transform="translate(-441 -376)"><g clip-path="url(#clip1)"><g><path d="M49.0753 39.1374C49.8894 39.1374 49.8894 40.3662 49.0753 40.3662L40.5966 40.3662C39.7825 40.3662 39.7825 39.1374 40.5966 39.1374L49.0753 39.1374ZM49.0753 33.3774C49.8894 33.3774 49.8894 34.6062 49.0753 34.6062L40.5966 34.6062C39.7825 34.6062 39.7825 33.3774 40.5966 33.3774L49.0753 33.3774ZM60.196 37.7089 60.2114 39.6135 63.8363 39.6135C64.7426 39.6135 65.4645 40.3508 65.4645 41.2417L65.4645 46.0955C65.4645 47.0017 64.7272 47.739 63.8363 47.739L60.2421 47.739 60.2574 49.6437 63.8363 49.6437C64.2818 49.6437 64.6965 49.828 64.9883 50.1198L64.9883 50.1198C65.2802 50.3963 65.4645 50.8264 65.4645 51.2718L65.4645 56.1256C65.4645 56.571 65.2802 56.9857 64.9883 57.2776L64.9883 57.2776C64.6965 57.5694 64.2818 57.7537 63.8363 57.7537L55.4037 57.7537C54.9582 57.7537 54.5435 57.5694 54.2517 57.2776L54.2517 57.2776C53.9445 56.9857 53.7755 56.571 53.7755 56.1256L53.7755 51.2718C53.7755 50.3809 54.5128 49.6283 55.419 49.6283L59.044 49.6283 59.044 47.7236 55.4344 47.7236C54.5435 47.7236 53.7909 46.9864 53.7909 46.0801L53.7909 41.2263C53.7909 40.7809 53.9752 40.3662 54.267 40.0743L54.267 40.0743C54.5435 39.7825 54.9736 39.5982 55.419 39.5982L58.9826 39.5982 58.9672 37.6935 55.3883 37.6935C54.4821 37.6935 53.7448 36.9563 53.7448 36.05L53.7448 31.1962C53.7448 30.7508 53.9291 30.3361 54.2209 30.0442L54.2209 30.0442C54.4974 29.7524 54.9275 29.5681 55.3729 29.5681L63.8056 29.5681C64.7118 29.5681 65.4338 30.3054 65.4338 31.2116L65.4338 36.0654C65.4338 36.9716 64.6965 37.7089 63.8056 37.7089L60.196 37.7089ZM63.821 50.8725 55.3883 50.8725C55.1733 50.8725 54.9736 51.0568 54.9736 51.2872L54.9736 56.1409C54.9736 56.2638 55.0197 56.356 55.0965 56.4328L55.0965 56.4328C55.1733 56.5096 55.2654 56.5557 55.3883 56.5557L63.821 56.5557C63.9438 56.5557 64.036 56.5096 64.1128 56.4328L64.1128 56.4328C64.1896 56.356 64.2357 56.2485 64.2357 56.1409L64.2357 51.2872C64.2357 51.1797 64.1896 51.0721 64.1128 50.9953L64.1128 50.9953C64.036 50.9185 63.9285 50.8725 63.821 50.8725L63.821 50.8725ZM63.821 40.8423 55.3883 40.8423C55.2808 40.8423 55.1733 40.8884 55.0965 40.9652L55.0965 40.9652C55.0197 41.042 54.9736 41.1495 54.9736 41.2571L54.9736 46.1108C54.9736 46.3412 55.1579 46.5256 55.3883 46.5256L63.821 46.5256C64.036 46.5256 64.2203 46.3412 64.2203 46.1108L64.2203 41.2571C64.2357 41.0267 64.0514 40.8423 63.821 40.8423L63.821 40.8423ZM63.821 30.7969 55.3883 30.7969C55.2808 30.7969 55.1733 30.843 55.0965 30.9198L55.0965 30.9198C55.0197 30.9966 54.9736 31.0887 54.9736 31.2116L54.9736 36.0654C54.9736 36.2804 55.1579 36.4647 55.3883 36.4647L63.821 36.4647C64.036 36.4647 64.2203 36.2804 64.2203 36.0654L64.2203 31.2116C64.2357 30.9966 64.0514 30.7969 63.821 30.7969L63.821 30.7969ZM49.0753 56.4021C49.8894 56.4021 49.8894 57.6309 49.0753 57.6309L40.5966 57.6309C39.7825 57.6309 39.7825 56.4021 40.5966 56.4021L49.0753 56.4021ZM49.0753 50.6574C49.8894 50.6574 49.8894 51.8862 49.0753 51.8862L40.5966 51.8862C39.7825 51.8862 39.7825 50.6574 40.5966 50.6574L49.0753 50.6574ZM49.0753 44.8974C49.8894 44.8974 49.8894 46.1262 49.0753 46.1262L40.5966 46.1262C39.7825 46.1262 39.7825 44.8974 40.5966 44.8974L49.0753 44.8974ZM22.3489 38.2004C25.1751 38.2004 27.4638 40.4891 27.4638 43.3153 27.4638 45.051 26.6036 46.6177 25.2365 47.5393 29.5374 48.6299 31.9489 52.1781 32.1486 56.6632 33.7921 56.5403 35.0823 55.1579 35.0823 53.499L35.0823 34.729C35.0823 32.978 33.6538 31.5495 31.9028 31.5495L12.7949 31.5495C11.0439 31.5495 9.61538 32.978 9.61538 34.729L9.61538 53.5144C9.61538 55.1733 10.9056 56.5557 12.5492 56.6785 12.7488 52.1781 15.1604 48.6299 19.4612 47.5547 16.8192 45.7422 16.4506 41.979 18.7239 39.7057 19.6609 38.7841 20.9357 38.2004 22.3489 38.2004L22.3489 38.2004ZM25.0983 40.5812C22.6561 38.139 18.4628 39.8747 18.4628 43.3307 18.4628 46.7867 22.6561 48.5224 25.0983 46.0801 26.6189 44.5595 26.6189 42.0865 25.0983 40.5812L25.0983 40.5812ZM22.3489 48.4456C17.1725 48.4456 14.0237 51.7019 13.778 56.6939L30.9044 56.6939C30.674 51.7019 27.5252 48.4456 22.3489 48.4456L22.3489 48.4456ZM12.7949 30.3207 18.7392 30.3207 18.7392 17.7716C18.7392 15.0528 20.9665 12.8256 23.6852 12.8256L66.125 12.8256C68.8437 12.8256 71.0709 15.0528 71.0709 17.7716L71.0709 59.812C71.0709 62.5307 68.8437 64.7579 66.125 64.7579L23.6852 64.7579C20.9665 64.7579 18.7392 62.5307 18.7392 59.812L18.7392 57.9381C16.7578 57.9381 14.7764 57.9381 12.7949 57.9381 10.368 57.9381 8.38658 55.9566 8.38658 53.5297L8.38658 34.729C8.40194 32.3022 10.3834 30.3207 12.7949 30.3207L12.7949 30.3207ZM19.9681 30.3207 31.9028 30.3207C34.3297 30.3207 36.3111 32.3022 36.3111 34.729L36.3111 53.5144C36.3111 55.9413 34.3297 57.9227 31.9028 57.9227L19.9681 57.9227 19.9681 59.7966C19.9681 61.8395 21.6423 63.5138 23.6852 63.5138L66.125 63.5138C68.1679 63.5138 69.8421 61.8395 69.8421 59.7966L69.8421 26.2349 19.9681 26.2349 19.9681 30.3207ZM19.9681 25.0061 69.8421 25.0061 69.8421 17.7716C69.8421 15.7287 68.1679 14.0544 66.125 14.0544L23.6852 14.0544C21.6423 14.0544 19.9681 15.7287 19.9681 17.7716L19.9681 25.0061ZM50.6113 17.3876 64.5429 17.3876C65.6795 17.3876 66.6011 18.3092 66.6011 19.4458 66.6011 20.1831 66.5858 20.7361 66.0021 21.3351 65.6334 21.7037 65.1112 21.9341 64.5429 21.9341L50.6113 21.9341C49.4747 21.9341 48.5531 21.0125 48.5531 19.8759 48.5531 19.1386 48.5684 18.5856 49.1521 17.9866 49.5361 17.618 50.043 17.3876 50.6113 17.3876L50.6113 17.3876ZM64.5429 18.6164 50.6113 18.6164C50.1505 18.6164 49.7819 18.985 49.7819 19.4458 49.7819 19.8452 49.7358 20.1677 50.0276 20.4596 50.1813 20.6132 50.3963 20.7053 50.6113 20.7053L64.5429 20.7053C65.0037 20.7053 65.3723 20.3213 65.3723 19.8759 65.3723 19.4765 65.4184 19.154 65.1266 18.8621 64.9883 18.7085 64.7733 18.6164 64.5429 18.6164L64.5429 18.6164ZM39.2295 17.3876C41.2571 17.3876 42.2708 19.8452 40.8423 21.2737 39.4139 22.7021 36.9563 21.6884 36.9563 19.6609 36.9563 18.4013 37.97 17.3876 39.2295 17.3876L39.2295 17.3876ZM39.9668 18.9082C39.3063 18.2477 38.1697 18.7239 38.1697 19.6455 38.1697 20.5825 39.3063 21.0433 39.9668 20.3828 40.3815 19.9834 40.3815 19.3229 39.9668 18.9082L39.9668 18.9082ZM32.3482 17.3876C34.3758 17.3876 35.3895 19.8452 33.961 21.2737 32.5326 22.7021 30.075 21.6884 30.075 19.6609 30.075 18.4013 31.0887 17.3876 32.3482 17.3876L32.3482 17.3876ZM33.1009 18.9082C32.4404 18.2477 31.3038 18.7239 31.3038 19.6455 31.3038 20.5825 32.4404 21.0433 33.1009 20.3828 33.5002 19.9834 33.5002 19.3229 33.1009 18.9082L33.1009 18.9082ZM25.4669 17.3876C27.4945 17.3876 28.5082 19.8452 27.0798 21.2737 25.6513 22.7021 23.1937 21.6884 23.1937 19.6609 23.1937 18.4013 24.2228 17.3876 25.4669 17.3876L25.4669 17.3876ZM26.2196 18.9082C25.5591 18.2477 24.4225 18.7239 24.4225 19.6455 24.4225 20.5825 25.5591 21.0433 26.2196 20.3828 26.6189 19.9834 26.6189 19.3229 26.2196 18.9082L26.2196 18.9082Z" fill="#A9B4C2" transform="matrix(1 0 0 1.00098 442.357 376)"/><text fill="#A9B4C2" font-family="Helvetica,Helvetica_MSFontService,sans-serif" font-weight="700" font-size="5" transform="matrix(0.1536 0 0 0.153751 442.357 457)">Created by SeeMoo</text><text fill="#A9B4C2" font-family="Helvetica,Helvetica_MSFontService,sans-serif" font-weight="700" font-size="5" transform="matrix(0.1536 0 0 0.153751 442.357 458)">from the Noun Project</text></g></g></g></svg>