<svg width="74" height="74" xmlns="http://www.w3.org/2000/svg" xmlns:xlink="http://www.w3.org/1999/xlink" xml:space="preserve" overflow="hidden"><g transform="translate(-525 -228)"><path d="M577.417 261.917C577.417 255.531 572.24 250.354 565.854 250.354 559.468 250.354 554.292 255.531 554.292 261.917 554.292 262.205 554.314 262.487 554.335 262.77 554.823 262.524 555.327 262.313 555.845 262.139 555.845 262.062 555.833 261.992 555.833 261.917 555.831 256.382 560.315 251.894 565.849 251.891 571.383 251.888 575.872 256.372 575.875 261.907 575.877 265.52 573.933 268.855 570.787 270.634 570.903 271.169 570.98 271.711 571.019 272.257 574.939 270.301 577.417 266.297 577.417 261.917Z" fill="#A9B4C2"/><path d="M559.496 263.083C553.962 263.083 549.476 267.569 549.476 273.104 549.476 278.638 553.962 283.125 559.496 283.125 565.031 283.125 569.517 278.638 569.517 273.104 569.517 267.569 565.031 263.083 559.496 263.083ZM559.496 281.588C554.813 281.588 551.017 277.792 551.017 273.109 551.017 268.426 554.813 264.63 559.496 264.63 564.179 264.63 567.976 268.426 567.976 273.109 567.97 277.79 564.177 281.582 559.496 281.588Z" fill="#A9B4C2"/><path d="M544.079 250.746C540.247 250.746 537.141 253.852 537.141 257.683 537.141 261.515 540.247 264.621 544.079 264.621 547.91 264.621 551.016 261.515 551.016 257.683 551.016 253.852 547.91 250.746 544.079 250.746ZM544.079 263.083C541.099 263.083 538.683 260.667 538.683 257.687 538.683 254.707 541.099 252.291 544.079 252.291 547.059 252.291 549.475 254.707 549.475 257.687 549.471 260.666 547.057 263.079 544.079 263.083Z" fill="#A9B4C2"/><path d="M581.852 280.046C577.595 280.046 574.144 283.497 574.144 287.754 574.144 292.011 577.595 295.463 581.852 295.463 586.109 295.463 589.56 292.011 589.56 287.754 589.56 283.497 586.109 280.046 581.852 280.046ZM581.852 293.921C578.446 293.921 575.685 291.16 575.685 287.754 575.685 284.348 578.446 281.588 581.852 281.588 585.258 281.588 588.019 284.348 588.019 287.754 588.016 291.16 585.257 293.92 581.852 293.925Z" fill="#A9B4C2"/><path d="M580.31 250.915C583.384 250.916 585.877 248.424 585.878 245.35 585.879 242.275 583.387 239.782 580.313 239.781 577.238 239.781 574.745 242.272 574.744 245.347 574.744 245.347 574.744 245.348 574.744 245.348 574.744 248.422 577.235 250.915 580.31 250.915ZM580.31 241.323C582.533 241.322 584.336 243.124 584.336 245.347 584.337 247.57 582.536 249.373 580.313 249.374 578.09 249.375 576.287 247.573 576.286 245.35 576.286 245.349 576.286 245.349 576.286 245.348 576.288 243.127 578.088 241.326 580.31 241.323Z" fill="#A9B4C2"/><path d="M540.996 279.275C537.59 279.275 534.829 282.036 534.829 285.442 534.829 288.848 537.59 291.608 540.996 291.608 544.401 291.608 547.162 288.848 547.162 285.442 547.162 282.036 544.401 279.275 540.996 279.275ZM540.996 290.067C538.441 290.067 536.371 287.996 536.371 285.442 536.371 282.887 538.441 280.817 540.996 280.817 543.55 280.817 545.621 282.887 545.621 285.442 545.619 287.996 543.55 290.066 540.996 290.07Z" fill="#A9B4C2"/><path d="M551.403 243.976C554.051 243.977 556.199 241.83 556.199 239.181 556.2 236.532 554.053 234.384 551.404 234.384 548.756 234.384 546.609 236.529 546.607 239.177 546.605 241.826 548.75 243.974 551.399 243.976 551.4 243.976 551.401 243.976 551.403 243.976ZM551.403 235.926C553.2 235.925 554.657 237.382 554.658 239.179 554.658 240.977 553.201 242.434 551.404 242.435 549.607 242.435 548.149 240.978 548.149 239.181 548.149 239.18 548.149 239.178 548.149 239.177 548.152 237.382 549.607 235.928 551.403 235.926Z" fill="#A9B4C2"/><path d="M538.298 245.348C539.575 245.348 540.61 244.313 540.61 243.036 540.61 241.759 539.575 240.723 538.298 240.723 537.02 240.723 535.985 241.759 535.985 243.036 535.985 244.313 537.02 245.348 538.298 245.348ZM538.298 242.265C538.723 242.265 539.068 242.61 539.068 243.036 539.068 243.462 538.723 243.807 538.298 243.807 537.872 243.807 537.527 243.462 537.527 243.036 537.526 242.61 537.871 242.265 538.297 242.264 538.297 242.264 538.297 242.264 538.298 242.264Z" fill="#A9B4C2"/><path d="M582.237 273.106C582.237 274.383 583.273 275.419 584.55 275.419 585.827 275.419 586.862 274.383 586.862 273.106 586.862 271.829 585.827 270.794 584.55 270.794 583.273 270.794 582.237 271.829 582.237 273.106ZM585.321 273.106C585.321 273.532 584.976 273.877 584.55 273.877 584.124 273.877 583.779 273.532 583.779 273.106 583.779 272.68 584.124 272.335 584.55 272.335 584.976 272.335 585.321 272.68 585.321 273.106Z" fill="#A9B4C2"/><path d="M553.715 287.757C552.438 287.757 551.403 288.792 551.403 290.069 551.403 291.346 552.438 292.382 553.715 292.382 554.992 292.382 556.028 291.346 556.028 290.069 556.028 288.792 554.992 287.757 553.715 287.757ZM553.715 290.84C553.289 290.84 552.944 290.495 552.944 290.069 552.944 289.643 553.289 289.298 553.715 289.298 554.141 289.298 554.486 289.643 554.486 290.069 554.486 290.495 554.142 290.84 553.716 290.841 553.716 290.841 553.715 290.841 553.715 290.841Z" fill="#A9B4C2"/><path d="M544.271 254.208C543.845 254.208 543.5 254.553 543.5 254.979 543.5 255.405 543.845 255.75 544.271 255.75 545.122 255.75 545.812 256.44 545.812 257.292 545.812 257.717 546.158 258.062 546.583 258.062 547.009 258.062 547.354 257.717 547.354 257.292 547.354 255.589 545.974 254.208 544.271 254.208Z" fill="#A9B4C2"/><path d="M572.792 261.917C573.217 261.917 573.562 261.572 573.562 261.146 573.558 257.316 570.455 254.213 566.625 254.208 566.199 254.208 565.854 254.553 565.854 254.979 565.854 255.405 566.199 255.75 566.625 255.75 569.604 255.753 572.017 258.167 572.021 261.146 572.021 261.572 572.366 261.917 572.792 261.917Z" fill="#A9B4C2"/><path d="M560.138 266.862C559.713 266.862 559.368 267.207 559.368 267.632 559.368 268.058 559.713 268.403 560.138 268.403 562.266 268.406 563.99 270.13 563.993 272.257 563.993 272.683 564.338 273.028 564.763 273.028 565.189 273.028 565.534 272.683 565.534 272.257 565.531 269.279 563.117 266.865 560.138 266.862Z" fill="#A9B4C2"/><path d="M582.042 283.5C581.616 283.5 581.271 283.845 581.271 284.271 581.271 284.697 581.616 285.042 582.042 285.042 583.319 285.042 584.354 286.077 584.354 287.354 584.354 287.78 584.699 288.125 585.125 288.125 585.551 288.125 585.896 287.78 585.896 287.354 585.893 285.227 584.169 283.503 582.042 283.5Z" fill="#A9B4C2"/></g></svg>