<svg width="106" height="93" xmlns="http://www.w3.org/2000/svg" xmlns:xlink="http://www.w3.org/1999/xlink" xml:space="preserve" overflow="hidden"><defs><clipPath id="clip0"><rect x="677" y="217" width="106" height="93"/></clipPath><clipPath id="clip1"><rect x="687" y="217" width="96" height="93"/></clipPath></defs><g clip-path="url(#clip0)" transform="translate(-677 -217)"><g clip-path="url(#clip1)"><g><path d="M72.2188 54.043C72.2188 52.5164 70.9758 51.2734 69.4491 51.2734 68.9289 51.2734 68.4494 51.4254 68.0339 51.6753 67.7096 51.3713 67.3753 51.0673 67.0273 50.7565 66.7436 50.5033 66.3079 50.5303 66.0545 50.814 65.8012 51.0977 65.8282 51.5335 66.1119 51.7867 66.4429 52.0806 66.7571 52.3711 67.0645 52.6582 66.8247 53.0669 66.6794 53.5363 66.6794 54.043 66.6794 55.5697 67.9224 56.8127 69.4491 56.8127 69.8815 56.8127 70.2867 56.7046 70.6516 56.5257 71.7493 58.0084 72.2121 59.2042 71.8844 59.7716 71.371 60.6633 68.4054 60.9065 61.7477 58.6536 61.0316 58.4104 60.2919 58.1436 59.5353 57.8598 59.5319 57.7855 59.5454 57.7146 59.5387 57.6402 61.5822 57.7788 63.2676 56.7148 64.2472 54.6206 65.2908 52.3913 65.2942 49.4426 64.3857 47.9632 66.338 46.0784 67.1486 43.0182 66.4562 39.9479 66.2231 38.9144 65.8346 37.9821 65.328 37.1647 65.8346 36.7425 66.3176 36.327 66.7872 35.9116 67.2195 36.192 67.7363 36.3609 68.2903 36.3609 69.817 36.3609 71.06 35.1179 71.06 33.5912 71.06 33.0541 70.8978 32.5542 70.631 32.1286 73.0494 29.3826 73.8634 27.3661 73.073 26.0015 72.0327 24.1979 68.4929 24.2316 62.548 26.096 62.1832 26.211 61.9839 26.596 62.0954 26.9607 62.2102 27.3222 62.5953 27.5249 62.9601 27.4134 68.7866 25.5861 71.3874 25.8428 71.8767 26.694 72.0389 26.9777 72.326 28.1193 69.6305 31.1897 69.232 30.9633 68.776 30.8249 68.2862 30.8249 66.7595 30.8249 65.5165 32.0678 65.5165 33.5945 65.5165 34.0674 65.6449 34.5065 65.8577 34.8949 65.422 35.28 64.9728 35.6684 64.4999 36.0603 63.6622 35.1247 62.6286 34.4188 61.4397 34.0201 62.1354 31.6692 61.1121 29.592 59.9231 28.4537 58.9909 27.562 57.8999 27.1364 56.9001 27.231 56.7311 25.7516 55.9915 24.5018 54.8633 23.8498 53.9277 23.3128 52.8502 23.2453 51.8031 23.6337 51.364 21.7827 50.175 20.5735 48.8307 20.006 48.6584 19.0873 48.476 18.2125 48.2801 17.3815 49.1245 16.9053 49.702 16.0136 49.702 14.9767 49.702 13.45 48.4591 12.207 46.9324 12.207 46.8412 12.207 46.7534 12.2238 46.6622 12.234 45.6488 9.91348 44.524 8.76846 43.2304 8.76846 41.2476 8.76846 39.5689 11.572 38.2416 17.1046 38.1538 17.4761 38.3801 17.8477 38.7516 17.9355 38.8057 17.949 38.8597 17.9558 38.9138 17.9558 39.2245 17.9558 39.5082 17.743 39.5825 17.4288 40.8728 12.0617 42.3116 10.1465 43.2305 10.1465 43.5446 10.1465 44.3552 10.4134 45.3686 12.6933 44.6424 13.1932 44.1628 14.0309 44.1628 14.9766 44.1628 16.5033 45.4058 17.7463 46.9325 17.7463 46.9392 17.7463 46.9459 17.7429 46.9528 17.7429 47.0946 18.3543 47.2331 18.9859 47.3648 19.6479 47.2094 19.6378 47.054 19.6209 46.8987 19.6243 45.5071 19.6851 44.1121 20.4585 43.3083 22.0224 42.5044 20.4585 41.1094 19.6851 39.7178 19.6243 37.7048 19.5364 35.4586 20.9112 34.81 23.6302 33.7596 23.2418 32.6821 23.3093 31.7498 23.8464 30.6183 24.4949 29.8819 25.7446 29.713 27.2275 28.7133 27.1295 27.6222 27.5585 26.69 28.4503 25.5011 29.5852 24.4776 31.6659 25.1734 34.0167 23.954 34.4253 22.8935 35.1516 22.0457 36.1244 15.7429 30.8721 14.0135 27.6734 14.5844 26.6871 15.0605 25.8596 17.7391 25.5725 23.7146 27.4741 24.076 27.589 24.4644 27.3897 24.5793 27.0283 24.6941 26.6668 24.4948 26.2784 24.1334 26.1636 18.0603 24.2281 14.4463 24.1741 13.3922 26.0014 12.5748 27.4167 13.4565 29.5176 16.0842 32.4258 17.4083 33.8884 19.158 35.5164 21.2454 37.2491 20.7624 38.0497 20.3909 38.9515 20.1645 39.9513 19.4688 43.0216 20.2795 46.0818 22.235 47.9665 21.3264 49.4459 21.3332 52.3947 22.3736 54.6239 23.3531 56.7181 25.0385 57.7854 27.0821 57.6436 27.0787 57.701 27.0888 57.7551 27.0854 57.8091 26.2748 58.1131 25.4877 58.3968 24.7244 58.6569 18.067 60.9099 15.1047 60.6667 14.5876 59.775 14.2533 59.194 14.743 57.9611 15.8914 56.4311 16.2596 56.6134 16.6683 56.7249 17.1073 56.7249 18.634 56.7249 19.877 55.4819 19.877 53.9552 19.877 53.4519 19.7318 52.9858 19.4954 52.5771 19.8466 52.2528 20.208 51.9218 20.5863 51.5908 20.8734 51.3409 20.9005 50.9052 20.6471 50.618 20.3971 50.3309 19.9614 50.304 19.6743 50.5572 19.2758 50.9086 18.8975 51.253 18.5293 51.5942 18.1105 51.3409 17.6275 51.1889 17.104 51.1889 15.5773 51.1889 14.3343 52.4319 14.3343 53.9586 14.3343 54.5497 14.5235 55.0935 14.8375 55.5427 13.2028 57.6875 12.7197 59.3088 13.3885 60.4673 13.9019 61.3556 15.0165 61.8016 16.7257 61.8016 18.7286 61.8016 21.5456 61.1901 25.1598 59.9675 25.8252 59.7412 26.5176 59.4912 27.2168 59.2311 27.6457 61.0888 28.9901 62.6527 30.4932 63.4262 31.905 64.1525 33.3507 64.1525 34.5193 63.4803 34.7592 64.7266 35.4414 65.777 36.4919 66.4729 37.2688 66.9863 38.1638 67.2498 39.0555 67.2498 39.7614 67.2498 40.4707 67.0877 41.1159 66.7566 41.7543 66.4289 42.6764 65.7534 43.3046 64.4327 43.9328 65.7534 44.8549 66.4323 45.4933 66.7566 46.054 67.0437 46.662 67.1957 47.2767 67.2328 46.9221 68.9757 46.5235 70.5193 46.0877 71.8434 45.9763 71.8299 45.8648 71.8096 45.7466 71.8096 44.2199 71.8096 42.9769 73.0526 42.9769 74.5793 42.9769 75.2075 43.1931 75.7784 43.5478 76.2445 43.4363 76.2917 43.3283 76.3256 43.2269 76.3256 42.4028 76.3256 41.0854 74.7144 39.8661 70.1883 39.7682 69.8201 39.3899 69.6039 39.0217 69.7019 38.6535 69.7998 38.4373 70.1781 38.5353 70.5463 39.8323 75.3629 41.3658 77.7036 43.2269 77.7036 43.7404 77.7036 44.2335 77.511 44.7029 77.1429 45.0272 77.2746 45.3785 77.3523 45.75 77.3523 47.2767 77.3523 48.5197 76.1093 48.5197 74.5826 48.5197 73.6639 48.0637 72.8532 47.3747 72.35 47.8644 70.8604 48.3136 69.0973 48.7055 67.0943 49.1986 66.966 49.6783 66.7667 50.1174 66.4762 51.1678 65.7804 51.8467 64.73 52.0899 63.4836 53.2586 64.1558 54.7042 64.1558 56.1161 63.4296 57.6057 62.6629 58.9432 61.1192 59.3822 59.2851 60.0308 59.5249 60.6759 59.7614 61.2974 59.9707 64.9115 61.1935 67.7285 61.8048 69.7314 61.8048 71.4372 61.8048 72.5552 61.359 73.0686 60.4706 73.7273 59.329 73.2679 57.7415 71.6973 55.6473 72.0182 55.1947 72.2108 54.6476 72.2108 54.0496ZM68.2939 32.2062C69.0606 32.2062 69.6855 32.8311 69.6855 33.5978 69.6855 34.3645 69.0606 34.9895 68.2939 34.9895 67.5272 34.9895 66.9023 34.3645 66.9023 33.5978 66.9023 32.8311 67.5272 32.2062 68.2939 32.2062ZM45.5448 14.9868C45.5448 14.2201 46.1697 13.5952 46.9364 13.5952 47.7031 13.5952 48.3281 14.2201 48.3281 14.9868 48.3281 15.7535 47.7031 16.3784 46.9364 16.3784 46.1697 16.3784 45.5448 15.7535 45.5448 14.9868ZM17.1078 52.5601C17.8745 52.5601 18.4994 53.185 18.4994 53.9517 18.4994 54.7185 17.8745 55.3434 17.1078 55.3434 16.3411 55.3434 15.7162 54.7185 15.7162 53.9517 15.7162 53.185 16.3411 52.5601 17.1078 52.5601ZM45.7575 75.9638C44.9908 75.9638 44.3659 75.3389 44.3659 74.5721 44.3659 73.8054 44.9908 73.1805 45.7575 73.1805 46.5242 73.1805 47.1491 73.8054 47.1491 74.5721 47.1491 75.3389 46.5242 75.9638 45.7575 75.9638ZM65.1153 40.2547C65.7537 43.0751 64.9227 45.8583 63.0009 47.3445 62.8286 47.4762 62.7307 47.6822 62.734 47.8984 62.7374 48.1146 62.8387 48.3173 63.0144 48.4456 63.744 48.9826 64.0378 51.8198 63.0009 54.0391 62.4064 55.3091 61.2141 56.6973 58.9037 56.1501 57.985 55.7955 57.2419 54.9172 56.8636 53.735 56.7487 53.3737 56.3603 53.171 55.9989 53.2892 55.6374 53.404 55.4348 53.7925 55.5531 54.1539 56.0158 55.6063 56.9312 56.7244 58.0897 57.2918L58.0897 57.2951C55.651 56.3291 53.0468 55.1773 50.3379 53.8634 50.473 51.8064 50.5743 49.6784 50.6284 47.4998 55.7929 44.345 60.4642 41.1092 64.2507 38.0591 64.6324 38.711 64.933 39.444 65.1188 40.258ZM48.9932 53.2147C47.5746 52.5087 46.1289 51.7521 44.6731 50.9718 45.4331 50.5496 46.1931 50.124 46.9564 49.6816 47.7197 49.2391 48.473 48.7966 49.2195 48.3507 49.1688 50.0092 49.0911 51.6305 48.9932 53.2146ZM50.5909 24.7336C50.6111 24.9733 50.7564 25.1861 50.9725 25.2942 51.1887 25.4023 51.4454 25.3854 51.6481 25.2538 52.5263 24.6896 53.4248 24.6154 54.1814 25.0511 55.0934 25.5746 55.6203 26.7433 55.5595 28.0977 55.5493 28.3409 55.6676 28.574 55.8736 28.7057 56.0797 28.8374 56.3397 28.8543 56.5593 28.7429 57.228 28.4085 58.1772 28.6854 58.9777 29.4522 59.8931 30.3303 60.6632 31.955 60.0586 33.779 59.2581 33.6371 58.184 33.6743 57.2281 34.0323 56.9444 34.1404 56.7992 34.4578 56.9039 34.7416 56.9883 34.9646 57.1978 35.0996 57.4207 35.0996 57.4849 35.0996 57.549 35.0895 57.6132 35.0659 58.4509 34.7518 59.4202 34.7652 60.0046 34.897 60.1025 35.0253 60.2309 35.1233 60.3896 35.1604 61.5819 35.4171 62.6189 36.0386 63.4362 36.9371 59.8694 39.8149 55.4987 42.8683 50.6518 45.8641 50.6654 44.9927 50.6755 44.1145 50.6755 43.2329 50.6755 35.3224 50.1283 27.8068 49.1488 21.7981 49.8987 22.4196 50.4728 23.3958 50.5911 24.7333ZM26.2274 35.1608C26.2476 35.1575 26.2646 35.1406 26.2848 35.1338 26.3085 35.127 26.3355 35.127 26.3591 35.1169 26.8523 34.9007 28.1087 34.8265 29.0984 35.2487 29.1863 35.2858 29.2809 35.3061 29.3686 35.3061 29.6355 35.3061 29.8888 35.1507 30.0037 34.8906 30.1523 34.5393 29.9935 34.134 29.6423 33.9854 28.6391 33.553 27.4232 33.4889 26.5213 33.6544 25.9944 31.8811 26.751 30.3105 27.6461 29.4559 28.4465 28.6892 29.3957 28.4122 30.0645 28.75 30.2841 28.858 30.5441 28.8445 30.7501 28.7128 30.9562 28.5811 31.0744 28.348 31.0643 28.1048 31.0035 26.747 31.5304 25.5816 32.4424 25.0582 33.199 24.6224 34.0975 24.6967 34.9757 25.2608 35.1784 25.3925 35.4351 25.406 35.6513 25.3013 35.8675 25.1932 36.0126 24.9839 36.033 24.7406 36.2491 22.2311 38.063 20.9475 39.664 21.0184 41.0961 21.0792 42.6262 22.2107 42.6262 25.2033 42.6262 25.585 42.9335 25.8924 43.3152 25.8924 43.697 25.8924 44.0043 25.585 44.0043 25.2033 44.0043 22.2107 45.5343 21.0792 46.9665 21.0184 47.1861 21.0083 47.4124 21.0319 47.6354 21.0725 48.7061 27.1489 49.3039 34.9715 49.3039 43.2405 49.3039 44.4126 49.287 45.5745 49.2634 46.7229 48.2839 47.3173 47.284 47.9051 46.2708 48.4894 45.2575 49.0738 44.2441 49.6446 43.2376 50.1986 42.2311 49.6446 41.2178 49.0771 40.2045 48.4894 37.0261 46.6553 33.9727 44.7503 31.1054 42.8284 31.2134 42.5346 31.281 42.2204 31.281 41.8928 31.281 40.3661 30.038 39.1231 28.5113 39.1231 27.8358 39.1231 27.2244 39.3765 26.7447 39.7784 25.4139 38.8056 24.2115 37.8835 23.1272 37.0121 23.9514 36.0798 25.0086 35.4313 26.2279 35.1678ZM28.5073 40.4976C29.274 40.4976 29.899 41.1225 29.899 41.8892 29.899 42.656 29.274 43.2809 28.5073 43.2809 27.7406 43.2809 27.1157 42.656 27.1157 41.8892 27.1157 41.1225 27.7406 40.4976 28.5073 40.4976ZM23.6232 54.0386C22.5863 51.8195 22.8801 48.9822 23.6097 48.4451 23.7853 48.3168 23.8867 48.1141 23.8901 47.898 23.8934 47.6818 23.7921 47.4757 23.6232 47.344 21.7013 45.8578 20.8738 43.0746 21.5088 40.2543 21.6844 39.474 21.9716 38.7681 22.3295 38.1331 23.4476 39.0316 24.65 39.9503 25.9302 40.8893 25.8086 41.2001 25.7377 41.5345 25.7377 41.8891 25.7377 43.4158 26.9807 44.6588 28.5074 44.6588 29.2066 44.6588 29.8382 44.3919 30.3246 43.9629 33.2194 45.9051 36.3032 47.8271 39.512 49.678 40.2753 50.1171 41.0353 50.5427 41.7952 50.9683 37.2523 53.4104 32.8578 55.4978 28.882 57.0988 29.8987 56.4739 30.689 55.4133 31.0978 54.069 31.2092 53.7042 31.0032 53.3191 30.6383 53.2077 30.2735 53.0962 29.8885 53.3023 29.777 53.667 29.4055 54.8864 28.6556 55.7848 27.7166 56.1496 25.4063 56.6969 24.2106 55.3052 23.6195 54.0386ZM46.1285 65.5191C44.8415 64.8605 44.0849 63.3742 44.0006 61.3274 44.0006 61.2902 43.9803 61.2565 43.9736 61.2193 43.9634 61.1753 43.96 61.1314 43.9431 61.0876 43.9263 61.0437 43.8958 61.0065 43.8689 60.9693 43.8452 60.9356 43.8249 60.9018 43.7979 60.8714 43.7641 60.8376 43.7236 60.814 43.683 60.7869 43.6493 60.7633 43.6189 60.7396 43.5817 60.7228 43.5378 60.7024 43.4906 60.6991 43.4433 60.689 43.4095 60.6822 43.3756 60.6654 43.3419 60.6654 43.3318 60.6654 43.325 60.6687 43.3149 60.6687 43.3047 60.6687 43.298 60.6654 43.2879 60.6654 43.2507 60.6654 43.2203 60.6822 43.1832 60.689 43.1359 60.6991 43.0886 60.7024 43.0446 60.7228 43.0075 60.7396 42.9737 60.7633 42.9399 60.7869 42.8995 60.814 42.8589 60.8376 42.8285 60.8714 42.7981 60.9018 42.7778 60.9356 42.7542 60.9727 42.7271 61.0098 42.7001 61.047 42.6833 61.0876 42.6663 61.128 42.6596 61.1753 42.6495 61.2193 42.6427 61.2565 42.6259 61.2868 42.6224 61.324 42.538 63.3709 41.7814 64.857 40.4945 65.5157 39.4744 66.0359 38.2314 65.9582 37.2587 65.3131 36.2453 64.6409 35.7185 63.4688 35.8197 62.1009 35.8401 61.8003 35.6678 61.5199 35.3874 61.4118 35.1071 61.3004 34.7895 61.3849 34.5971 61.6179 33.3777 63.1176 31.7666 62.5198 31.1282 62.1921 29.8852 61.5537 28.8043 60.2196 28.5274 58.7199 32.9995 56.9736 38.0355 54.589 43.234 51.7585 45.1491 52.8021 47.0406 53.7817 48.8917 54.697 48.591 58.8211 48.1351 62.6143 47.544 65.8532 47.0576 65.8499 46.5712 65.7451 46.1254 65.5189ZM55.4948 62.192C54.8564 62.5197 53.2452 63.1175 52.0259 61.6178 51.8367 61.3848 51.5159 61.3004 51.2355 61.4118 50.9552 61.5233 50.7795 61.8036 50.8031 62.1008 50.9045 63.4688 50.3775 64.6408 49.3642 65.313 49.246 65.3907 49.1278 65.4582 49.0029 65.519 49.5263 62.5061 49.9385 59.0541 50.2256 55.339 52.9751 56.6597 55.6131 57.8115 58.0821 58.7708 57.7882 60.2468 56.7243 61.5575 55.4948 62.189ZM68.0561 54.0417C68.0561 53.2749 68.681 52.65 69.4477 52.65 70.2145 52.65 70.8394 53.2749 70.8394 54.0417 70.8394 54.8084 70.2145 55.4333 69.4477 55.4333 68.681 55.4333 68.0561 54.8084 68.0561 54.0417Z" fill="#A9B4C2" transform="matrix(1.00071 0 0 1 692.143 225.647)"/><text fill="#A9B4C2" font-family="Helvetica,Helvetica_MSFontService,sans-serif" font-weight="700" font-size="5" transform="matrix(0.865303 0 0 0.864689 692.143 327)">Created by Eskak</text><text fill="#A9B4C2" font-family="Helvetica,Helvetica_MSFontService,sans-serif" font-weight="700" font-size="5" transform="matrix(0.865303 0 0 0.864689 692.143 332)">from Noun Project</text></g></g></g></svg>