<?xml version="1.0" encoding="UTF-8"?>
<svg id="Layer_1" data-name="Layer 1" xmlns="http://www.w3.org/2000/svg" viewBox="0 0 60 60">
  <defs>
    <style>
      .cls-1 {
        fill: #0e0e0e;
      }
    </style>
  </defs>
  <path class="cls-1" d="M30,1.12L5,15.56v28.88l25,14.44,25-14.44V15.56L30,1.12h0ZM49.87,16.55l-6.27,3.62-13.6-7.86-13.6,7.86-6.27-3.62L30,5.07l19.87,11.48h0ZM30,43.74l-10.18-5.88,10.18-5.88,10.18,5.88-10.18,5.88h0ZM41.89,34.9l-10.18-5.88v-11.77l10.18,5.88v11.77h0ZM18.11,34.9v-11.76l10.18-5.88v11.77l-10.18,5.88h0ZM8.42,19.51l6.27,3.62v15.71l13.6,7.86v7.24l-19.87-11.48v-22.96h0ZM31.71,53.95v-7.24l13.6-7.86v-15.71l6.27-3.62v22.96l-19.87,11.48h0Z"/>
  <path class="cls-1" d="M30,1.12L5,15.56v28.88l25,14.44,25-14.44V15.56L30,1.12h0ZM49.87,16.55l-6.27,3.62-13.6-7.86-13.6,7.86-6.27-3.62L30,5.07l19.87,11.48h0ZM30,43.74l-10.18-5.88,10.18-5.88,10.18,5.88-10.18,5.88h0ZM41.89,34.9l-10.18-5.88v-11.77l10.18,5.88v11.77h0ZM18.11,34.9v-11.76l10.18-5.88v11.77l-10.18,5.88h0ZM8.42,19.51l6.27,3.62v15.71l13.6,7.86v7.24l-19.87-11.48v-22.96h0ZM31.71,53.95v-7.24l13.6-7.86v-15.71l6.27-3.62v22.96l-19.87,11.48h0Z"/>
</svg>